<?xml version="1.0" encoding="UTF-8" standalone="no"?>
<!-- Generator: Adobe Illustrator 15.0.0, SVG Export Plug-In . SVG Version: 6.00 Build 0)  -->

<svg
   xmlns:dc="http://purl.org/dc/elements/1.1/"
   xmlns:cc="http://creativecommons.org/ns#"
   xmlns:rdf="http://www.w3.org/1999/02/22-rdf-syntax-ns#"
   xmlns:svg="http://www.w3.org/2000/svg"
   xmlns="http://www.w3.org/2000/svg"
   xmlns:sodipodi="http://sodipodi.sourceforge.net/DTD/sodipodi-0.dtd"
   xmlns:inkscape="http://www.inkscape.org/namespaces/inkscape"
   version="1.1"
   id="Layer_1"
   transform="matrix(0.2997524,0,0,0.2997524,-256.64116,66.246337)"
   inkscape:export-filename="/media/slinkpassport/slink/slink/drupalkonf/2009/drupal_bg.png"
   inkscape:version="0.48.1 r9760"
   sodipodi:version="0.32"
   sodipodi:docname="drupal_bg_qr.svg"
   inkscape:output_extension="org.inkscape.output.svg.inkscape"
   inkscape:export-xdpi="1000"
   inkscape:export-ydpi="1000"
   x="0px"
   y="0px"
   width="340.157px"
   height="198.425px"
   viewBox="0 0 340.157 198.425"
   enable-background="new 0 0 340.157 198.425"
   xml:space="preserve"><metadata
   id="metadata23"><rdf:RDF><cc:Work
       rdf:about=""><dc:format>image/svg+xml</dc:format><dc:type
         rdf:resource="http://purl.org/dc/dcmitype/StillImage" /><dc:title></dc:title></cc:Work></rdf:RDF></metadata><defs
   id="defs21" /><sodipodi:namedview
   pagecolor="#ffffff"
   bordercolor="#666666"
   borderopacity="1"
   objecttolerance="10"
   gridtolerance="10"
   guidetolerance="10"
   inkscape:pageopacity="0"
   inkscape:pageshadow="2"
   inkscape:window-width="1440"
   inkscape:window-height="843"
   id="namedview19"
   showgrid="false"
   inkscape:zoom="1.2296837"
   inkscape:cx="170.94773"
   inkscape:cy="131.74119"
   inkscape:window-x="0"
   inkscape:window-y="26"
   inkscape:window-maximized="1"
   inkscape:current-layer="Layer_1" />
<path
   id="path7"
   fill="#00598E"
   d="M56.847,27.947c-3.037-1.891-5.901-2.635-8.766-4.526c-1.776-1.204-4.24-4.068-6.302-6.532  c-0.401,3.953-1.604,5.558-2.979,6.704c-2.922,2.292-4.755,2.979-7.276,4.354c-2.12,1.089-13.636,7.964-13.636,22.746  c0,14.782,12.433,25.668,26.241,25.668S69.91,66.335,69.91,51.152S58.68,29.093,56.847,27.947z" />
<path
   id="path9"
   fill="#FFFFFF"
   d="M52.193,63.521c0.917,0,1.891,0.057,2.578,0.516c0.688,0.458,1.088,1.489,1.318,2.062  c0.229,0.573,0,0.917-0.458,1.146c-0.401,0.229-0.458,0.114-0.859-0.63c-0.401-0.745-0.745-1.49-2.75-1.49  c-2.005,0-2.636,0.688-3.61,1.49s-1.318,1.088-1.662,0.63c-0.344-0.458-0.229-0.917,0.401-1.49c0.63-0.573,1.661-1.49,2.635-1.891  C50.761,63.464,51.276,63.521,52.193,63.521L52.193,63.521z" />
<path
   id="path11"
   fill="#FFFFFF"
   d="M42.682,70.053c1.146,0.917,2.865,1.662,6.532,1.662s6.245-1.031,7.391-1.891  c0.516-0.401,0.745-0.057,0.802,0.172c0.058,0.229,0.172,0.573-0.229,0.974c-0.287,0.286-2.922,2.12-6.016,2.406  c-3.094,0.287-7.276,0.458-9.797-1.833c-0.401-0.401-0.286-0.974,0-1.203c0.287-0.229,0.516-0.401,0.859-0.401  S42.51,69.938,42.682,70.053L42.682,70.053z" />
<path
   id="path13"
   fill="#0073BA"
   d="M28.645,65.698c4.354-0.057,5.156-0.802,8.995-2.521c20.741-9.282,24.58-17.762,25.324-19.709  c0.745-1.948,1.833-5.1,0.688-8.594c-0.222-0.675-0.383-1.217-0.499-1.652c-2.756-3.082-5.493-4.764-6.319-5.28  c-2.979-1.891-5.901-2.636-8.766-4.526c-1.776-1.146-4.24-4.068-6.302-6.532c-0.401,3.953-1.547,5.615-2.979,6.704  c-2.922,2.292-4.755,2.979-7.276,4.354c-2.12,1.146-13.636,7.964-13.636,22.746c0,4.72,1.268,9.042,3.442,12.74l0.568-0.02  C23.087,64.495,24.978,65.756,28.645,65.698z" />
<path
   id="path15"
   fill="#004975"
   d="M56.834,27.941c-2.979-1.891-5.901-2.636-8.766-4.526c-1.776-1.146-4.24-4.068-6.302-6.532  c-0.401,3.953-1.547,5.615-2.979,6.704c-2.922,2.292-4.755,2.979-7.276,4.354c-2.12,1.146-13.636,7.964-13.636,22.746  c0,4.72,1.268,9.042,3.442,12.74c4.637,7.884,13.399,12.929,22.799,12.929c13.808,0,25.783-10.027,25.783-25.21  c0-8.338-3.387-14.17-6.744-17.924C60.397,30.14,57.661,28.458,56.834,27.941z M63.798,34.648  c3.762,4.703,5.669,10.253,5.669,16.497c0,3.623-0.69,7.046-2.051,10.173c-1.291,2.967-3.15,5.595-5.526,7.812  c-4.696,4.382-11.009,6.796-17.776,6.796c-3.348,0-6.634-0.64-9.765-1.901c-3.076-1.239-5.848-3.013-8.238-5.273  c-5.035-4.759-7.808-11.174-7.808-18.065c0-6.137,1.992-11.59,5.921-16.208c3.001-3.528,6.238-5.483,7.49-6.16  c0.608-0.332,1.178-0.625,1.73-0.907c1.729-0.888,3.362-1.726,5.607-3.487c1.198-0.91,2.474-2.352,3.017-6.012  c1.893,2.251,4.089,4.781,5.767,5.863c1.49,0.983,3.018,1.672,4.495,2.338c1.398,0.63,2.843,1.282,4.274,2.19  c0.002,0.001,0.054,0.033,0.054,0.033C60.839,30.948,63.066,33.733,63.798,34.648z" />
<path
   id="path17"
   fill="#93C5E4"
   d="M42.052,18.029c0.802,2.349,0.688,3.552,0.688,4.068s-0.286,1.891-1.203,2.578  c-0.401,0.287-0.516,0.516-0.516,0.573c0,0.229,0.516,0.401,0.516,0.917c0,0.63-0.286,1.891-3.323,4.927s-7.391,5.729-10.771,7.391  s-4.985,1.547-5.443,0.745c-0.458-0.802,0.172-2.579,2.292-4.928s8.823-5.729,8.823-5.729l8.365-5.844l0.458-2.235" />
<path
   id="path19"
   fill="#FFFFFF"
   d="M42.052,17.972c-0.516,3.782-1.661,4.928-3.208,6.131c-2.578,1.948-5.099,3.151-5.672,3.438  c-1.49,0.745-6.875,3.724-9.683,8.021c-0.859,1.317,0,1.833,0.172,1.948s2.12,0.344,6.303-2.177  c4.182-2.521,6.016-4.011,8.365-6.474c1.261-1.318,1.433-2.062,1.433-2.406c0-0.401-0.287-0.573-0.745-0.688  c-0.229-0.057-0.286-0.172,0-0.344c0.287-0.172,1.49-0.745,1.776-0.974c0.287-0.229,1.662-1.146,1.719-2.636  S42.453,19.29,42.052,17.972L42.052,17.972z" />
<path
   id="path21"
   fill="#FFFFFF"
   d="M29.161,59.625c0.057-4.469,4.24-8.651,9.511-8.708c6.704-0.057,11.345,6.646,14.725,6.589  c2.865-0.057,8.365-5.672,11.058-5.672c2.865,0,3.667,2.979,3.667,4.756c0,1.776-0.573,4.984-1.948,6.99  c-1.375,2.005-2.234,2.75-3.838,2.635c-2.063-0.172-6.188-6.589-8.824-6.703c-3.323-0.115-10.542,6.933-16.214,6.933  c-3.438,0-4.469-0.516-5.615-1.261C29.963,63.979,29.104,62.146,29.161,59.625L29.161,59.625z" />
<path
   id="path23"
   fill="none"
   d="M63.652,34.874c1.146,3.495,0.057,6.646-0.688,8.594c-0.745,1.948-4.583,10.427-25.324,19.709  c-3.839,1.719-4.641,2.463-8.995,2.521c-3.667,0.058-5.558-1.203-6.761-2.292l-0.568,0.02c4.637,7.884,13.399,12.929,22.799,12.929  c13.808,0,25.783-10.027,25.783-25.21c0-8.338-3.387-14.17-6.744-17.924C63.27,33.657,63.431,34.199,63.652,34.874z" />
<rect
   id="rect2436"
   x="240.977"
   y="4.321"
   fill="none"
   width="64.911"
   height="185.911" />
<rect
   id="rect2438"
   x="210.097"
   y="32.681"
   fill="none"
   width="67.432"
   height="127.302" />
<rect
   id="rect2440"
   x="232.154"
   y="25.749"
   fill="none"
   width="42.224"
   height="153.14" />
<rect
   id="rect2442"
   x="201.904"
   y="-21.517"
   fill="none"
   width="68.062"
   height="184.651" />
<rect
   id="rect2444"
   x="259.883"
   y="40.243"
   fill="none"
   width="34.661"
   height="144.317" />

<text
   xml:space="preserve"
   style="font-size:20.27753448px;font-style:normal;font-weight:normal;line-height:125%;letter-spacing:0px;word-spacing:0px;fill:#15538e;fill-opacity:1;stroke:none;font-family:Sans"
   x="19.221777"
   y="-306.36157"
   id="text3069"
   sodipodi:linespacing="125%"
   transform="matrix(-0.01110547,0.99993833,-0.99993833,-0.01110547,0,0)"><tspan
     sodipodi:role="line"
     id="tspan3071"
     x="19.221777"
     y="-306.36157"
     style="font-size:20.27753448px;font-style:normal;font-variant:normal;font-weight:bold;font-stretch:condensed;text-align:start;line-height:125%;writing-mode:lr-tb;text-anchor:start;fill:#15538e;fill-opacity:1;font-family:PT Sans Narrow;-inkscape-font-specification:PT Sans Narrow Bold Condensed">Drupal Hétvége 2011</tspan></text>
</svg>