<?xml version="1.0" encoding="UTF-8" standalone="no"?>
<!-- Generator: Adobe Illustrator 15.0.0, SVG Export Plug-In . SVG Version: 6.00 Build 0)  -->

<svg
   xmlns:dc="http://purl.org/dc/elements/1.1/"
   xmlns:cc="http://creativecommons.org/ns#"
   xmlns:rdf="http://www.w3.org/1999/02/22-rdf-syntax-ns#"
   xmlns:svg="http://www.w3.org/2000/svg"
   xmlns="http://www.w3.org/2000/svg"
   xmlns:sodipodi="http://sodipodi.sourceforge.net/DTD/sodipodi-0.dtd"
   xmlns:inkscape="http://www.inkscape.org/namespaces/inkscape"
   version="1.1"
   id="Layer_1"
   transform="matrix(0.2997524,0,0,0.2997524,-256.64116,66.246337)"
   inkscape:export-filename="/media/slinkpassport/slink/slink/drupalkonf/2009/drupal_bg.png"
   inkscape:version="0.48.1 r9760"
   sodipodi:version="0.32"
   sodipodi:docname="background_angyal.svg"
   inkscape:output_extension="org.inkscape.output.svg.inkscape"
   inkscape:export-xdpi="1000"
   inkscape:export-ydpi="1000"
   x="0px"
   y="0px"
   width="340.157px"
   height="198.425px"
   viewBox="0 0 340.157 198.425"
   enable-background="new 0 0 340.157 198.425"
   xml:space="preserve"><metadata
   id="metadata23"><rdf:RDF><cc:Work
       rdf:about=""><dc:format>image/svg+xml</dc:format><dc:type
         rdf:resource="http://purl.org/dc/dcmitype/StillImage" /><dc:title></dc:title></cc:Work></rdf:RDF></metadata><defs
   id="defs21"><clipPath
     clipPathUnits="userSpaceOnUse"
     id="clipPath18"><path
       inkscape:connector-curvature="0"
       d="m 0,0 4194.65,0 0,5528 L 0,5528 0,0 z"
       id="path20" /></clipPath><clipPath
     clipPathUnits="userSpaceOnUse"
     id="clipPath18-3"><path
       inkscape:connector-curvature="0"
       d="m 0,0 4194.65,0 0,5528 L 0,5528 0,0 z"
       id="path20-7" /></clipPath></defs><sodipodi:namedview
   pagecolor="#ffffff"
   bordercolor="#666666"
   borderopacity="1"
   objecttolerance="10"
   gridtolerance="10"
   guidetolerance="10"
   inkscape:pageopacity="0"
   inkscape:pageshadow="2"
   inkscape:window-width="1440"
   inkscape:window-height="843"
   id="namedview19"
   showgrid="false"
   inkscape:zoom="1.7390354"
   inkscape:cx="160.50117"
   inkscape:cy="79.399751"
   inkscape:window-x="0"
   inkscape:window-y="26"
   inkscape:window-maximized="1"
   inkscape:current-layer="Layer_1" />
<g
   id="g6203"
   transform="matrix(1.25,0,0,-1.25,0.13457179,199.171)"><path
     d="m 0,0 273.14645,0 0,159.33542 L 0,159.33542 0,0 z"
     style="fill:#fffa84;fill-opacity:1;fill-rule:nonzero;stroke:none"
     id="path6205"
     inkscape:connector-curvature="0" /></g><g
   id="g12"
   transform="matrix(0.08812363,0,0,-0.08812363,-24.965162,494.90159)"><g
     id="g14"><g
       id="g16"
       clip-path="url(#clipPath18-3)"><path
         d="m 1725.51,5206.29 19.55,0 c 31.4,0 42.62,22.11 48.06,65.37 5.13,42.94 -0.32,65.37 -31.72,65.37 l -19.55,0 -16.34,-130.74 z m -69.22,-54.79 29.49,240.32 82.03,0 c 84.27,0 98.05,-52.23 89.72,-120.16 -8.65,-68.25 -34.93,-120.16 -119.2,-120.16 l -82.04,0"
         style="fill:#217ac8;fill-opacity:1;fill-rule:nonzero;stroke:none"
         id="path22"
         inkscape:connector-curvature="0" /><path
         d="m 1995.29,5262.69 c -1.28,0.32 -7.37,1.28 -15.38,1.28 -13.78,0 -27.56,-4.48 -33.01,-8.01 l -12.81,-104.46 -62.81,0 19.55,160.22 41.66,0 4.48,-10.26 c 10.58,8.34 29.16,15.39 48.39,15.39 8.01,0 13.78,-0.97 16.98,-2.57 l -7.05,-51.59"
         style="fill:#217ac8;fill-opacity:1;fill-rule:nonzero;stroke:none"
         id="path24"
         inkscape:connector-curvature="0" /><path
         d="m 2120.24,5151.5 -4.8,10.25 c -16.35,-9.61 -35.89,-15.38 -55.12,-15.38 -46.78,0 -54.47,24.68 -50.62,56.08 l 13.45,109.27 62.81,0 -12.83,-103.5 c -0.95,-8.01 1.93,-12.82 10.58,-12.82 8.98,0 16.98,3.21 21.48,5.77 l 13.45,110.55 62.81,0 -19.56,-160.22 -41.65,0"
         style="fill:#217ac8;fill-opacity:1;fill-rule:nonzero;stroke:none"
         id="path26"
         inkscape:connector-curvature="0" /><path
         d="m 2260.57,5198.93 c 0.63,-0.65 7.68,-4.81 16.33,-4.81 16.66,0 22.11,10.57 25.32,37.49 3.52,27.23 0.64,37.81 -16.02,37.81 -8.65,0 -16.67,-4.17 -17.63,-4.81 l -8,-65.68 z m -7.38,112.79 5.45,-10.58 c 14.42,8.97 31.09,15.71 52.55,15.71 41.66,0 60.25,-23.72 52.55,-85.24 -7.36,-61.53 -31.72,-85.24 -73.38,-85.24 -14.41,0 -25.96,3.53 -35.24,8.65 l -10.26,-83.63 -62.8,0 29.47,240.33 41.66,0"
         style="fill:#217ac8;fill-opacity:1;fill-rule:nonzero;stroke:none"
         id="path28"
         inkscape:connector-curvature="0" /><path
         d="m 2487.72,5264.29 c -0.95,0.64 -7.68,4.81 -16.33,4.81 -16.66,0 -22.11,-10.57 -25.64,-37.49 -3.2,-27.24 -0.32,-37.81 16.34,-37.81 8.65,0 16.35,4.16 17.63,4.81 l 8,65.68 z m 49.04,-112.79 -41.66,0 -5.45,10.57 c -14.74,-8.97 -31.08,-15.7 -52.55,-15.7 -41.66,0 -60.24,23.71 -52.87,85.24 7.69,61.52 32.04,85.24 73.7,85.24 21.46,0 36.21,-6.74 48.7,-16.03 l 8.02,10.9 41.65,0 -19.54,-160.22"
         style="fill:#217ac8;fill-opacity:1;fill-rule:nonzero;stroke:none"
         id="path30"
         inkscape:connector-curvature="0" /><path
         d="m 2642.47,5150.86 c 0,0 -11.53,-2.56 -23.71,-2.56 -30.12,0 -50.31,13.45 -46.14,45.82 l 24.35,197.7 62.81,0 -22.76,-182.96 c -0.63,-6.41 2.57,-9.62 11.54,-9.62 l -6.09,-48.38"
         style="fill:#217ac8;fill-opacity:1;fill-rule:nonzero;stroke:none"
         id="path32"
         inkscape:connector-curvature="0" /><path
         d="m 2398.56,4887.08 11.55,95.81 -57.69,0 -11.53,-95.81 -62.8,0 29.48,240.33 62.8,0 -11.22,-89.09 57.69,0 11.21,89.09 62.8,0 -29.47,-240.33 -62.82,0"
         style="fill:#217ac8;fill-opacity:1;fill-rule:nonzero;stroke:none"
         id="path34"
         inkscape:connector-curvature="0" /><path
         d="m 2567.41,5062.04 24.04,65.37 60.87,0 -43.26,-65.37 -41.65,0 z m 13.14,-80.75 c 11.22,0 18.26,4.16 19.55,14.42 1.28,10.25 -4.81,14.42 -16.03,14.42 -14.1,0 -26.28,-9.62 -28.19,-28.84 l 24.67,0 z m -28.84,-32.05 c -2.56,-15.38 5.77,-21.78 32.68,-21.78 20.51,0 41.98,4.48 57.68,9.61 l -4.48,-43.9 c -20.51,-8.01 -47.75,-11.22 -67.3,-11.22 -59.27,0 -79.46,27.24 -72.41,85.24 7.04,58 36.2,85.23 91.32,85.23 52.24,0 70.82,-17.94 66.65,-51.58 -4.16,-33.65 -27.24,-51.6 -79.46,-51.6 l -24.68,0"
         style="fill:#217ac8;fill-opacity:1;fill-rule:nonzero;stroke:none"
         id="path36"
         inkscape:connector-curvature="0" /><path
         d="m 2781.11,4886.44 c -8.33,-2.89 -23.06,-4.49 -34.92,-4.49 -45.82,0 -60.89,19.87 -56.4,57.04 l 7.69,60.56 -25.31,0 4.8,39.1 25.96,7.04 4.17,32.05 64.73,16.66 -5.78,-47.1 36.54,0 -5.77,-47.75 -36.53,0 -6.74,-53.51 c -1.27,-10.25 2.9,-15.06 14.11,-15.06 8.97,0 16.98,1.92 18.27,2.24 l -4.82,-46.78"
         style="fill:#217ac8;fill-opacity:1;fill-rule:nonzero;stroke:none"
         id="path38"
         inkscape:connector-curvature="0" /><path
         d="m 2890.36,4949.88 33.98,97.42 64.08,0 -73.38,-161.5 -65.37,0 -33.64,161.5 64.08,0 10.25,-97.42"
         style="fill:#217ac8;fill-opacity:1;fill-rule:nonzero;stroke:none"
         id="path40"
         inkscape:connector-curvature="0" /><path
         d="m 3055.37,5062.04 24.03,65.37 60.88,0 -43.25,-65.37 -41.66,0 z m 13.14,-80.75 c 11.22,0 18.27,4.16 19.55,14.42 1.28,10.25 -4.81,14.42 -16.03,14.42 -14.09,0 -26.27,-9.62 -28.19,-28.84 l 24.67,0 z m -28.84,-32.05 c -2.56,-15.38 5.77,-21.78 32.68,-21.78 20.51,0 41.99,4.48 57.68,9.61 l -4.48,-43.9 c -20.51,-8.01 -47.75,-11.22 -67.3,-11.22 -59.28,0 -79.46,27.24 -72.41,85.24 7.05,58 36.21,85.23 91.32,85.23 52.23,0 70.82,-17.94 66.65,-51.58 -4.16,-33.65 -27.24,-51.6 -79.46,-51.6 l -24.68,0"
         style="fill:#217ac8;fill-opacity:1;fill-rule:nonzero;stroke:none"
         id="path42"
         inkscape:connector-curvature="0" /><path
         d="m 3264.59,4999.88 c -0.96,0.63 -7.69,4.8 -16.34,4.8 -16.66,0 -22.11,-10.57 -25.63,-37.49 -3.21,-26.92 -0.33,-37.81 16.34,-37.81 8.65,0 16.34,4.17 17.62,4.8 l 8.01,65.7 z m 68.57,47.42 -18.26,-148.36 c -5.45,-44.55 -15.7,-97.09 -99.01,-97.09 -25,0 -48.39,3.52 -64.09,9.93 l 6.73,51.59 c 18.58,-8.01 34.28,-12.18 51.91,-12.18 25.31,0 36.85,7.37 39.09,25.96 l 1.6,13.13 c -10.57,-4.8 -22.75,-8.33 -37.17,-8.33 -41.66,0 -60.24,23.71 -52.87,85.24 7.69,61.52 32.04,85.23 73.7,85.23 21.47,0 36.21,-6.73 48.71,-16.02 l 8,10.9 41.66,0"
         style="fill:#217ac8;fill-opacity:1;fill-rule:nonzero;stroke:none"
         id="path44"
         inkscape:connector-curvature="0" /><path
         d="m 3431.19,4981.29 c 11.22,0 18.27,4.16 19.55,14.42 1.28,10.25 -4.8,14.42 -16.02,14.42 -14.09,0 -26.27,-9.62 -28.2,-28.84 l 24.67,0 z m -28.84,-32.05 c -2.56,-15.38 5.78,-21.78 32.69,-21.78 20.51,0 41.98,4.48 57.67,9.61 l -4.48,-43.9 c -20.51,-8.01 -47.74,-11.22 -67.29,-11.22 -59.28,0 -79.47,27.24 -72.41,85.24 7.05,58 36.21,85.23 91.31,85.23 52.24,0 70.82,-17.94 66.65,-51.58 -4.16,-33.65 -27.23,-51.6 -79.46,-51.6 l -24.68,0"
         style="fill:#217ac8;fill-opacity:1;fill-rule:nonzero;stroke:none"
         id="path46"
         inkscape:connector-curvature="0" /><path
         d="m 1940.91,4856.97 -16.52,0 -3.47,-28.25 16.51,0 c 10.22,0 13.47,6.96 14.34,14.13 0.87,7.17 -0.65,14.12 -10.86,14.12 z m -5,-59.54 -18.91,0 -4.12,-33.45 18.9,0 c 10.87,0 15.87,6.73 17.17,16.72 1.08,10.22 -2.4,16.73 -13.04,16.73 z m -49.76,94.52 62.37,0 c 43.23,0 51.49,-19.99 48.23,-46.93 -1.53,-12.6 -9.35,-23.47 -19.78,-29.77 10.87,-5.21 18.69,-16.95 16.3,-35.63 -3.48,-28.47 -18.25,-50.63 -63.88,-50.63 l -63.23,0 19.99,162.96"
         style="fill:#1d5d9e;fill-opacity:1;fill-rule:nonzero;stroke:none"
         id="path48"
         inkscape:connector-curvature="0" /><path
         d="m 2080.21,4728.99 -3.26,6.95 c -11.07,-6.51 -24.33,-10.43 -37.37,-10.43 -31.72,0 -36.93,16.74 -34.33,38.03 l 9.13,74.09 42.58,0 -8.69,-70.18 c -0.64,-5.43 1.31,-8.69 7.18,-8.69 6.08,0 11.51,2.17 14.55,3.91 l 9.13,74.96 42.59,0 -13.25,-108.64 -28.26,0"
         style="fill:#1d5d9e;fill-opacity:1;fill-rule:nonzero;stroke:none"
         id="path50"
         inkscape:connector-curvature="0" /><path
         d="m 2200.19,4805.47 c -0.66,0.44 -5.22,3.26 -11.09,3.26 -11.3,0 -14.99,-7.17 -17.38,-25.42 -2.18,-18.47 -0.22,-25.64 11.08,-25.64 5.86,0 11.08,2.83 11.95,3.26 l 5.44,44.54 z m 4.99,-76.48 -3.7,7.17 c -9.99,-6.08 -21.07,-10.65 -35.63,-10.65 -28.24,0 -40.85,16.08 -35.85,57.8 5.21,41.72 21.73,57.8 49.97,57.8 9.79,0 17.61,-2.39 23.91,-5.86 l 6.95,56.7 42.59,0 -19.99,-162.96 -28.25,0"
         style="fill:#1d5d9e;fill-opacity:1;fill-rule:nonzero;stroke:none"
         id="path52"
         inkscape:connector-curvature="0" /><path
         d="m 2325.15,4805.47 c -0.66,0.44 -5.22,3.26 -11.09,3.26 -11.3,0 -14.99,-7.17 -17.38,-25.42 -2.17,-18.47 -0.22,-25.64 11.08,-25.64 5.87,0 11.09,2.83 11.96,3.26 l 5.43,44.54 z m 33.24,-76.48 -28.24,0 -3.69,7.17 c -10,-6.08 -21.09,-10.65 -35.64,-10.65 -28.25,0 -40.85,16.08 -35.86,57.8 5.22,41.72 21.73,57.8 49.98,57.8 14.56,0 24.55,-4.57 33.03,-10.86 l 5.43,7.38 28.25,0 -13.26,-108.64"
         style="fill:#1d5d9e;fill-opacity:1;fill-rule:nonzero;stroke:none"
         id="path54"
         inkscape:connector-curvature="0" /><path
         d="m 2423.17,4761.15 c 0.43,-0.44 5.22,-3.26 11.08,-3.26 11.3,0 15,7.17 17.17,25.42 2.39,18.47 0.44,25.64 -10.86,25.64 -5.87,0 -11.3,-2.83 -11.96,-3.26 l -5.43,-44.54 z m -5,76.48 3.7,-7.17 c 9.77,6.08 21.07,10.65 35.63,10.65 28.25,0 40.85,-16.08 35.63,-57.8 -5,-41.72 -21.51,-57.8 -49.75,-57.8 -9.78,0 -17.6,2.39 -23.91,5.87 l -6.95,-56.71 -42.59,0 19.99,162.96 28.25,0"
         style="fill:#1d5d9e;fill-opacity:1;fill-rule:nonzero;stroke:none"
         id="path56"
         inkscape:connector-curvature="0" /><path
         d="m 2560.96,4792.87 c 7.6,0 12.38,2.82 13.25,9.78 0.87,6.95 -3.26,9.78 -10.86,9.78 -9.56,0 -17.82,-6.52 -19.12,-19.56 l 16.73,0 z m -19.56,-21.73 c -1.74,-10.43 3.91,-14.77 22.16,-14.77 13.91,0 28.47,3.04 39.12,6.52 l -3.05,-29.78 c -13.91,-5.42 -32.37,-7.6 -45.63,-7.6 -40.19,0 -53.88,18.47 -49.11,57.8 4.79,39.33 24.56,57.8 61.94,57.8 35.41,0 48.01,-12.17 45.19,-34.99 -2.83,-22.81 -18.48,-34.98 -53.89,-34.98 l -16.73,0"
         style="fill:#1d5d9e;fill-opacity:1;fill-rule:nonzero;stroke:none"
         id="path58"
         inkscape:connector-curvature="0" /><path
         d="m 2713.09,4802.87 c -10.87,4.56 -23.7,6.95 -35.64,6.95 -7.61,0 -12.39,-1.74 -13.04,-6.52 -0.44,-5 2.83,-6.3 7.83,-6.74 35.19,-2.82 43.67,-9.12 40.62,-33.02 -2.61,-21.51 -16.51,-38.03 -55.4,-38.03 -20.64,0 -31.94,3.7 -40.63,7.39 l 4.56,32.16 c 13.03,-5.65 26.73,-8.48 39.32,-8.48 7.83,0 12.61,1.74 13.26,6.53 0.65,4.99 -2.83,6.29 -7.82,6.73 -34.55,3.04 -43.68,9.56 -40.85,33.03 2.83,22.81 18.9,38.24 54.32,38.24 20.2,0 30.42,-2.83 38.03,-6.09 l -4.56,-32.15"
         style="fill:#1d5d9e;fill-opacity:1;fill-rule:nonzero;stroke:none"
         id="path60"
         inkscape:connector-curvature="0" /><path
         d="m 2801.54,4728.55 c -5.65,-1.95 -15.64,-3.04 -23.69,-3.04 -31.06,0 -41.28,13.47 -38.24,38.68 l 5.21,41.06 -17.15,0 3.25,26.52 17.61,4.77 2.82,21.73 43.88,11.3 -3.9,-31.94 24.76,0 -3.9,-32.38 -24.78,0 -4.56,-36.28 c -0.87,-6.95 1.95,-10.21 9.56,-10.21 6.09,0 11.52,1.3 12.38,1.52 l -3.25,-31.73"
         style="fill:#1d5d9e;fill-opacity:1;fill-rule:nonzero;stroke:none"
         id="path62"
         inkscape:connector-curvature="0" /><path
         d="m 1709.01,4588.86 c -27.55,24.73 -57.48,40.79 -109.78,59.87 -50.19,18.32 -80.59,29.41 -133.07,39.93 -125.03,25.06 -281.07,11.48 -409.09,20.61 -63.547,4.53 -233.773,10.25 -238.027,93.74 -3.738,73.61 94.555,113.69 152.434,132.08 -125.997,-7.32 -620.383,-130.63 -569.84,-249.76 46.566,-109.78 398.379,-88.99 485.687,-86.49 206.146,5.93 269.456,33.27 395.866,36.59 50.33,1.33 326.02,3.32 425.82,-46.57"
         style="fill:#217ac8;fill-opacity:1;fill-rule:nonzero;stroke:none"
         id="path64"
         inkscape:connector-curvature="0" /><path
         d="m 1186.72,4735.23 c -82.25,2.86 -194.454,8.48 -252.825,23.29 -98.75,25.05 -100.282,71.75 -53.227,149.7 60.137,99.62 105.711,221.94 159.682,272.79 0,0 106.46,156.35 259.48,16.63 0,0 169.66,-133.07 202.92,-502.33 0,0 -155.76,34.36 -316.03,39.92"
         style="fill:#1d5d9e;fill-opacity:1;fill-rule:nonzero;stroke:none"
         id="path66"
         inkscape:connector-curvature="0" /><path
         d="m 1159.03,5271.93 c 0,0 -65.32,-2.82 -16.32,135.23 l 42.92,7.11 c 0,0 -15.96,-109.57 34.57,-104.93 0,0 -38.75,-41.72 -61.17,-37.41"
         style="fill:#1d5d9e;fill-opacity:1;fill-rule:nonzero;stroke:none"
         id="path68"
         inkscape:connector-curvature="0" /><path
         d="m 1136.81,5412.34 -4.1,80.57 11.98,8.02 9.52,-81.22 33.12,0.73 29.99,89.48 19.77,4.12 -42.81,-104.52 -19.23,-22.58 -38.24,25.4"
         style="fill:#1d5d9e;fill-opacity:1;fill-rule:nonzero;stroke:none"
         id="path70"
         inkscape:connector-curvature="0" /><path
         d="m 1105.96,5490.66 c 0,0 88.99,34.38 160.3,-6.99 0,0 -75.67,95.2 -160.3,6.99"
         style="fill:#1d5d9e;fill-opacity:1;fill-rule:nonzero;stroke:none"
         id="path72"
         inkscape:connector-curvature="0" /><path
         d="m 1195.79,5460.92 c -9.81,3.71 -17.62,1.84 -21.35,-6.04 -14.59,-1.21 -19.1,-16.72 -13.49,-26.97 6.59,-3.61 13.62,-6.62 21.16,-9.08 -2.14,-14.1 18.48,-38.5 36.94,-34.39 -34.58,19.77 26.98,75.86 -38.17,75.17"
         style="fill:#1d5d9e;fill-opacity:1;fill-rule:nonzero;stroke:none"
         id="path74"
         inkscape:connector-curvature="0" /><path
         d="m 905.652,5328.4 -0.679,0.42 -1.473,0.89 -0.395,0.24 c -17.91,11.16 -35.207,18.96 -51.929,26.5 -13.149,5.94 -25.574,11.55 -37.606,18.44 -3.906,2.27 -7.316,4.36 -10.191,6.27 -19.473,13.19 -52.438,52.55 -68.274,71.46 l -40.234,47.96 -6.293,-62.12 c -1.207,-11.88 -3.098,-22.16 -5.594,-30.4 -4.785,-15.44 -11.347,-22.98 -17.199,-28.26 -0.555,-0.46 -1.133,-0.92 -1.699,-1.36 l -0.207,-0.14 -0.203,-0.17 c -23.875,-18.72 -40.844,-27.43 -60.496,-37.52 -6.625,-3.4 -13.489,-6.93 -20.801,-10.92 -2.469,-1.33 -6.555,-3.6 -11.891,-6.85 -17.715,-10.65 -52.273,-34.23 -84.644,-72.41 -50.926,-59.82 -76.746,-130.43 -76.746,-209.87 0,-57.37 15.172,-113.5 43.871,-162.31 20.816,-35.37 48.093,-66.38 81.269,-92.3 l 0.457,-0.36 c 7.996,-6.21 16.328,-12.11 24.836,-17.59 l 0.707,-0.44 0.969,-0.62 c 3.82,-2.43 7.754,-4.81 11.52,-7 l 1.277,-0.75 c 3.918,-2.25 8.012,-4.49 12.629,-6.89 1.008,-0.52 2.023,-1.03 2.887,-1.46 3.367,-1.72 6.765,-3.38 10.242,-4.99 l 1.043,-0.48 2.144,-1.01 c 3.992,-1.81 8.031,-3.55 12.231,-5.26 1.113,-0.46 2.242,-0.89 3.355,-1.33 l 0.938,-0.36 c 2.906,-1.14 5.82,-2.24 8.632,-3.25 1.68,-0.61 3.364,-1.21 5.102,-1.81 3.883,-1.34 7.805,-2.62 11.691,-3.78 1.469,-0.46 2.946,-0.86 4.414,-1.27 l 1.532,-0.44 c 2.398,-0.69 4.793,-1.33 7.066,-1.92 2.25,-0.59 4.512,-1.16 6.902,-1.75 2.438,-0.56 4.891,-1.09 7.637,-1.68 3.696,-0.78 7.41,-1.51 11.125,-2.17 1.813,-0.32 3.617,-0.65 5.414,-0.93 2.766,-0.46 5.547,-0.89 8.235,-1.24 0.953,-0.13 1.918,-0.24 2.882,-0.36 l 1.141,-0.15 c 5.438,-0.66 10.922,-1.21 16.305,-1.61 l 0.988,-0.08 2.481,-0.18 c 3.195,-0.2 6.39,-0.36 9.734,-0.47 l 1.086,-0.03 0.703,-0.02 2.355,-0.08 c 2.489,-0.07 4.989,-0.15 7.489,-0.15 87.093,0 168.508,31.21 229.234,87.89 63.549,59.3 98.549,142.11 98.549,233.19 0,121.11 -59.96,227.99 -164.518,293.28"
         style="fill:#ffffff;fill-opacity:1;fill-rule:nonzero;stroke:none"
         id="path76"
         inkscape:connector-curvature="0" /><path
         d="m 891.105,5306.44 c -35.5,22.1 -69,30.81 -102.492,52.92 -20.769,14.06 -49.574,47.55 -73.691,76.36 -4.688,-46.22 -18.762,-64.98 -34.828,-78.37 -34.172,-26.8 -55.606,-34.84 -85.078,-50.91 -24.789,-12.73 -159.446,-93.12 -159.446,-265.96 0,-172.82 145.375,-300.11 306.817,-300.11 161.445,0 301.453,117.24 301.453,294.75 0,177.52 -131.297,257.91 -152.735,271.32"
         style="fill:#1d5d9e;fill-opacity:1;fill-rule:nonzero;stroke:none"
         id="path78"
         inkscape:connector-curvature="0" /><path
         d="m 836.695,4890.5 c 10.715,0 22.098,-0.66 30.145,-6.02 8.043,-5.36 12.73,-17.43 15.406,-24.13 2.68,-6.69 0,-10.71 -5.355,-13.39 -4.696,-2.68 -5.36,-1.35 -10.051,7.38 -4.692,8.69 -8.703,17.4 -32.156,17.4 -23.446,0 -30.817,-8.03 -42.204,-17.4 -11.382,-9.39 -15.41,-12.74 -19.421,-7.38 -4.016,5.36 -2.676,10.72 4.683,17.42 7.371,6.69 19.43,17.42 30.817,22.1 11.386,4.69 17.418,4.02 28.136,4.02 l 0,0"
         style="fill:#ffffff;fill-opacity:1;fill-rule:nonzero;stroke:none"
         id="path80"
         inkscape:connector-curvature="0" /><path
         d="m 725.492,4814.13 c 13.395,-10.72 33.496,-19.42 76.367,-19.42 42.871,0 73.024,12.06 86.418,22.1 6.035,4.69 8.703,0.67 9.379,-2.01 0.672,-2.68 2.008,-6.69 -2.679,-11.39 -3.352,-3.35 -34.161,-24.78 -70.336,-28.13 -36.184,-3.35 -85.079,-5.36 -114.551,21.43 -4.692,4.7 -3.356,11.4 0,14.08 3.34,2.67 6.023,4.68 10.043,4.68 4.015,0 3.351,0 5.359,-1.34 l 0,0"
         style="fill:#ffffff;fill-opacity:1;fill-rule:nonzero;stroke:none"
         id="path82"
         inkscape:connector-curvature="0" /><path
         d="m 561.367,4865.04 c 50.906,0.68 60.293,9.39 105.176,29.48 242.5,108.52 287.387,207.66 296.094,230.44 8.707,22.78 21.433,59.63 8.031,100.49 -2.582,7.89 -4.469,14.22 -5.828,19.32 -32.223,36.03 -64.215,55.69 -73.883,61.73 -34.836,22.11 -69.004,30.82 -102.5,52.93 -20.766,13.39 -49.57,47.56 -73.684,76.37 -4.683,-46.23 -18.085,-65.66 -34.835,-78.38 -34.168,-26.8 -55.602,-34.84 -85.071,-50.92 -24.785,-13.39 -155.918,-93.65 -155.918,-266.48 0,-55.17 12.961,-103.16 38.387,-146.4 l 4.988,-1.78 c 14.067,-12.72 36.168,-27.46 79.043,-26.8"
         style="fill:#217ac8;fill-opacity:1;fill-rule:nonzero;stroke:none"
         id="path84"
         inkscape:connector-curvature="0" /><path
         d="m 972.379,5228.09 c 43.991,-54.98 66.291,-119.89 66.291,-192.9 0,-42.36 -8.07,-82.37 -23.99,-118.93 -15.09,-34.68 -36.825,-65.41 -64.598,-91.33 -54.906,-51.24 -128.719,-79.47 -207.84,-79.47 -39.152,0 -77.554,7.49 -114.172,22.23 -35.965,14.49 -68.375,35.23 -96.324,61.65 -58.875,55.64 -91.297,130.65 -91.297,211.22 0,71.75 23.297,135.51 69.223,189.5 35.101,41.25 72.933,64.11 87.578,72.02 7.105,3.88 13.781,7.31 20.227,10.61 20.218,10.38 39.304,20.18 65.566,40.77 14,10.64 28.922,27.5 35.269,70.3 22.126,-26.32 47.805,-55.9 67.426,-68.55 17.422,-11.5 35.282,-19.56 52.563,-27.34 16.34,-7.38 33.242,-14.99 49.961,-25.6 0.031,-0.02 0.633,-0.39 0.633,-0.39 48.882,-30.53 74.929,-63.09 83.484,-73.79 z m -81.422,78.41 c -34.836,22.11 -69.004,30.82 -102.5,52.93 -20.766,13.39 -49.57,47.56 -73.684,76.37 -4.683,-46.23 -18.085,-65.66 -34.835,-78.38 -34.168,-26.8 -55.602,-34.84 -85.071,-50.92 -24.785,-13.39 -159.437,-93.12 -159.437,-265.94 0,-55.18 14.82,-105.72 40.246,-148.95 54.222,-92.18 156.668,-151.16 266.566,-151.16 161.442,0 301.448,117.23 301.448,294.74 0,97.5 -39.59,165.68 -78.85,209.58 -32.223,36.03 -64.215,55.69 -73.883,61.73"
         style="fill:#1e4b80;fill-opacity:1;fill-rule:nonzero;stroke:none"
         id="path86"
         inkscape:connector-curvature="0" /><path
         d="m 718.113,5422.39 c 9.391,-27.46 8.055,-41.52 8.055,-47.55 0,-6.04 -3.356,-22.11 -14.066,-30.15 -4.696,-3.35 -6.043,-6.03 -6.043,-6.7 0,-2.68 6.043,-4.69 6.043,-10.71 0,-7.38 -3.356,-22.11 -38.86,-57.61 -35.5,-35.51 -86.418,-67 -125.941,-86.42 -39.528,-19.43 -58.281,-18.09 -63.641,-8.71 -5.359,9.38 2.004,30.14 26.793,57.61 24.789,27.46 103.168,66.99 103.168,66.99 l 97.805,68.32 5.355,26.13"
         style="fill:#68cef6;fill-opacity:1;fill-rule:nonzero;stroke:none"
         id="path88"
         inkscape:connector-curvature="0" /><path
         d="m 718.113,5423.06 c -6.011,-44.21 -19.414,-57.61 -37.504,-71.67 -30.144,-22.78 -59.625,-36.85 -66.316,-40.2 -17.422,-8.71 -80.387,-43.53 -113.219,-93.77 -10.043,-15.41 0,-21.45 2.012,-22.79 2.012,-1.34 24.789,-4.02 73.687,25.46 48.907,29.48 70.34,46.9 97.805,75.7 14.738,15.4 16.75,24.11 16.75,28.13 0,4.69 -3.348,6.7 -8.711,8.04 -2.679,0.67 -3.344,2 0,4.02 3.356,2.01 17.422,8.71 20.774,11.39 3.343,2.68 19.421,13.4 20.093,30.82 0.664,17.41 -0.672,29.47 -5.371,44.87 l 0,0"
         style="fill:#ffffff;fill-opacity:1;fill-rule:nonzero;stroke:none"
         id="path90"
         inkscape:connector-curvature="0" /><path
         d="m 567.398,4936.05 c 0.668,52.26 49.567,101.16 111.2,101.83 78.379,0.66 132.64,-77.71 172.168,-77.03 33.488,0.66 97.804,66.3 129.285,66.3 33.489,0 42.879,-34.83 42.879,-55.6 0,-20.76 -6.7,-58.27 -22.78,-81.71 -16.08,-23.45 -26.127,-32.16 -44.88,-30.82 -24.118,2 -72.348,77.03 -103.165,78.38 -38.859,1.33 -123.265,-81.06 -189.582,-81.06 -40.187,0 -52.25,6.04 -65.652,14.73 -20.098,14.08 -30.141,35.51 -29.473,64.98 l 0,0"
         style="fill:#ffffff;fill-opacity:1;fill-rule:nonzero;stroke:none"
         id="path92"
         inkscape:connector-curvature="0" /><path
         d="m 1202.27,5051.58 -75.43,-479.36 106.46,13.31 24.83,440.93 -55.86,25.12"
         style="fill:#ffffff;fill-opacity:1;fill-rule:nonzero;stroke:none"
         id="path94"
         inkscape:connector-curvature="0" /><path
         d="m 1264.33,4998.19 c 0,0 43.44,-232.4 242.05,-213.56 108.61,21.99 164.47,31.42 214.12,188.44 l -9.31,-109.92 c 0,0 -6.2,-200.99 -235.84,-172.72 -108.62,25.12 -204.82,106.77 -207.92,210.41 l -3.1,97.35"
         style="fill:#ffffff;fill-opacity:1;fill-rule:nonzero;stroke:none"
         id="path96"
         inkscape:connector-curvature="0" /><path
         d="m 1183.64,5017.03 -21.72,-136.82 c 0,0 -41.73,-290.11 -447.584,-324.61 l -16.633,41.41 c 0,0 299.399,-51.77 485.937,420.02"
         style="fill:#ffffff;fill-opacity:1;fill-rule:nonzero;stroke:none"
         id="path98"
         inkscape:connector-curvature="0" /><path
         d="m 1193.3,4552.27 c 0,0 293.99,79.84 548.98,-26.62 l -548.98,26.62"
         style="fill:#217ac8;fill-opacity:1;fill-rule:nonzero;stroke:none"
         id="path100"
         inkscape:connector-curvature="0" /><path
         d="m 1887.16,4642.89 c -11.37,0 -22.37,-2.99 -30.21,-5.59 l 1.49,11.93 c 7.27,2.8 21.07,5.22 30.21,5.22 33.57,0 38.23,-16.6 36.17,-33 -2.6,-21.07 -12.11,-32.64 -68.24,-73.84 l 61.34,0 -1.3,-11.56 -79.25,0 0.94,8.95 c 64.51,45.12 71.78,60.97 73.65,76.63 1.68,13.8 -4.29,21.26 -24.8,21.26"
         style="fill:#217ac8;fill-opacity:1;fill-rule:nonzero;stroke:none"
         id="path102"
         inkscape:connector-curvature="0" /><path
         d="m 2018.42,4594.41 c 3.73,30.95 0,48.48 -24.05,48.48 -24.06,0 -32.26,-17.53 -35.99,-48.48 -3.92,-31.33 0,-48.67 24.05,-48.67 24.05,0 32.08,17.34 35.99,48.67 z m -73.27,0 c 4.65,38.6 16.4,60.04 50.52,60.04 34.12,0 40.65,-21.44 35.99,-60.04 -4.66,-38.6 -16.59,-60.23 -50.71,-60.23 -34.13,0 -40.47,21.63 -35.8,60.23"
         style="fill:#217ac8;fill-opacity:1;fill-rule:nonzero;stroke:none"
         id="path104"
         inkscape:connector-curvature="0" /><path
         d="m 2093.18,4654.45 -14.35,-118.4 -13.05,0 12.86,104.98 -25.36,-0.94 0.57,5.04 33.75,9.32 5.58,0"
         style="fill:#217ac8;fill-opacity:1;fill-rule:nonzero;stroke:none"
         id="path106"
         inkscape:connector-curvature="0" /><path
         d="m 2158.45,4654.45 -14.36,-118.4 -13.05,0 12.87,104.98 -25.37,-0.94 0.56,5.04 33.75,9.32 5.6,0"
         style="fill:#217ac8;fill-opacity:1;fill-rule:nonzero;stroke:none"
         id="path108"
         inkscape:connector-curvature="0" /><path
         d="m 2187.53,4552.83 c 5.21,0 9.32,-4.1 9.32,-9.32 0,-5.23 -4.11,-9.33 -9.32,-9.33 -5.23,0 -9.33,4.1 -9.33,9.33 0,5.22 4.1,9.32 9.33,9.32"
         style="fill:#217ac8;fill-opacity:1;fill-rule:nonzero;stroke:none"
         id="path110"
         inkscape:connector-curvature="0" /><path
         d="m 2320.84,4603.73 c 1.49,12.12 -5.03,15.85 -16.59,15.85 -12.12,0 -18.64,-2.05 -25.92,-5.97 l -9.51,-77.56 -13.05,0 11.37,93.23 7.27,0 1.87,-7.83 c 9.51,6.52 19.39,9.69 29.28,9.69 22.18,0 30.39,-10.07 28.34,-27.96 l -8.21,-67.13 -13.05,0 8.2,67.68"
         style="fill:#217ac8;fill-opacity:1;fill-rule:nonzero;stroke:none"
         id="path112"
         inkscape:connector-curvature="0" /><path
         d="m 2400.27,4619.58 c -24.61,0 -28.15,-15.85 -30.77,-36.92 -2.61,-21.07 -2.98,-36.92 21.63,-36.92 24.25,0 27.97,15.85 30.59,36.92 2.61,21.07 2.79,36.92 -21.45,36.92 z m -10.62,-85.4 c -31.89,0 -36.74,19.95 -33.19,48.48 3.54,28.53 13.24,48.48 45.12,48.48 32.07,0 36.73,-19.95 33.19,-48.48 -3.55,-28.53 -13.05,-48.48 -45.12,-48.48"
         style="fill:#217ac8;fill-opacity:1;fill-rule:nonzero;stroke:none"
         id="path114"
         inkscape:connector-curvature="0" /><path
         d="m 2470.75,4629.28 17.34,-76.45 35.99,76.45 14.36,0 -48.11,-95.1 -9.32,0 -24.61,95.1 14.35,0"
         style="fill:#217ac8;fill-opacity:1;fill-rule:nonzero;stroke:none"
         id="path116"
         inkscape:connector-curvature="0" /><path
         d="m 2586.35,4587.32 c 18.46,0 23.31,7.09 24.43,16.23 1.11,9.13 -1.86,16.03 -20.33,16.03 -21.62,0 -27.59,-15.48 -30.21,-32.26 l 26.11,0 z m -27.4,-10.62 c -1.13,-16.23 1.29,-30.96 22.37,-30.96 13.43,0 21.81,1.31 31.33,5.22 l -1.31,-11.18 c -11.01,-4.67 -22.38,-5.6 -31.52,-5.6 -31.51,0 -36.35,21.63 -33.19,48.48 3.36,26.85 13.61,48.48 45.13,48.48 26.29,0 33.01,-14.36 31.33,-27.59 -1.68,-13.24 -11.75,-26.85 -38.04,-26.85 l -26.1,0"
         style="fill:#217ac8;fill-opacity:1;fill-rule:nonzero;stroke:none"
         id="path118"
         inkscape:connector-curvature="0" /><path
         d="m 2759.94,4603.73 c 1.5,12.12 -5.03,15.85 -15.65,15.85 -11.57,0 -18.28,-2.24 -26.3,-6.15 0.38,-2.98 0.38,-6.15 0,-9.7 l -8.2,-67.68 -13.05,0 8.2,67.68 c 1.5,12.12 -5.04,15.85 -15.66,15.85 -10.82,0 -17.35,-1.87 -24.99,-5.6 l -9.5,-77.93 -13.06,0 11.38,93.23 7.26,0 1.87,-7.65 c 9.69,6.53 19.76,9.51 28.35,9.51 12.49,0 20.87,-3.54 24.79,-10.63 10.63,6.72 20.89,10.63 30.21,10.63 19.95,0 29.64,-9.32 27.41,-27.96 l -8.21,-67.13 -13.05,0 8.2,67.68"
         style="fill:#217ac8;fill-opacity:1;fill-rule:nonzero;stroke:none"
         id="path120"
         inkscape:connector-curvature="0" /><path
         d="m 2814.38,4613.61 -7.64,-61.9 c 6.71,-3.92 13.23,-5.97 25.36,-5.97 22.37,0 27.4,18.46 29.64,36.92 2.24,18.46 1.86,36.92 -20.51,36.92 -12.12,0 -19.21,-2.05 -26.85,-5.97 z m 60.41,-30.95 c -3.17,-26.85 -14.16,-48.48 -44.18,-48.48 -10.07,0 -19.03,3.36 -27.79,9.51 l -3.73,-7.64 -7.26,0 17.14,139.84 13.05,0 -6.52,-52.39 c 8.77,5.21 18.46,7.64 27.04,7.64 30.02,0 35.61,-21.63 32.25,-48.48"
         style="fill:#217ac8;fill-opacity:1;fill-rule:nonzero;stroke:none"
         id="path122"
         inkscape:connector-curvature="0" /><path
         d="m 2938.74,4587.32 c 18.46,0 23.31,7.09 24.42,16.23 1.13,9.13 -1.86,16.03 -20.32,16.03 -21.63,0 -27.6,-15.48 -30.2,-32.26 l 26.1,0 z m -27.41,-10.62 c -1.12,-16.23 1.31,-30.96 22.38,-30.96 13.42,0 21.82,1.31 31.32,5.22 l -1.3,-11.18 c -11.01,-4.67 -22.38,-5.6 -31.51,-5.6 -31.52,0 -36.36,21.63 -33.2,48.48 3.36,26.85 13.62,48.48 45.13,48.48 26.29,0 33,-14.36 31.33,-27.59 -1.68,-13.24 -11.75,-26.85 -38.05,-26.85 l -26.1,0"
         style="fill:#217ac8;fill-opacity:1;fill-rule:nonzero;stroke:none"
         id="path124"
         inkscape:connector-curvature="0" /><path
         d="m 3055.46,4618.09 c -2.79,0.93 -6.34,1.49 -11,1.49 -12.68,0 -20.51,-2.05 -27.78,-5.97 l -9.51,-77.56 -13.06,0 11.38,93.23 7.27,0 1.87,-7.83 c 9.5,6.52 20.69,9.69 31.13,9.69 4.29,0 7.65,-0.37 11.19,-0.93 l -1.49,-12.12"
         style="fill:#217ac8;fill-opacity:1;fill-rule:nonzero;stroke:none"
         id="path126"
         inkscape:connector-curvature="0" /><path
         d="m 3144.21,4642.89 c -11.38,0 -22.37,-2.99 -30.21,-5.59 l 1.5,11.93 c 7.26,2.8 21.06,5.22 30.2,5.22 33.57,0 38.23,-16.6 36.18,-33 -2.61,-21.07 -12.12,-32.64 -68.25,-73.84 l 61.35,0 -1.31,-11.56 -79.25,0 0.93,8.95 c 64.52,45.12 71.8,60.97 73.65,76.63 1.68,13.8 -4.28,21.26 -24.79,21.26"
         style="fill:#217ac8;fill-opacity:1;fill-rule:nonzero;stroke:none"
         id="path128"
         inkscape:connector-curvature="0" /><path
         d="m 3241.73,4545.74 c 25.36,0 31.7,20.7 33.18,33.38 1.5,12.68 1.87,33.38 -24.98,33.38 -26.29,0 -34.12,-18.84 -35.8,-33.38 -1.86,-14.92 0.74,-33.38 27.6,-33.38 z m -26.29,60.04 c 5.59,8.4 17.15,18.27 35.8,18.27 38.22,0 38.97,-26.1 36.73,-44.93 -2.42,-18.84 -11.38,-44.94 -47.74,-44.94 -40.08,0 -42.13,26.48 -37.29,66.2 5.6,45.87 19.77,77.37 60.79,77.37 18.09,0 27.41,-3.72 31.89,-6.33 l -1.5,-12.31 c -6.52,3.54 -16.96,6.71 -31.88,6.71 -29.47,0 -42.33,-24.98 -46.8,-60.04"
         style="fill:#217ac8;fill-opacity:1;fill-rule:nonzero;stroke:none"
         id="path130"
         inkscape:connector-curvature="0" /><path
         d="m 3354.16,4586.76 -46.62,0 1.49,12.31 46.61,0 -1.48,-12.31"
         style="fill:#217ac8;fill-opacity:1;fill-rule:nonzero;stroke:none"
         id="path132"
         inkscape:connector-curvature="0" /><path
         d="m 3412.71,4642.89 c -11.38,0 -22.38,-2.99 -30.21,-5.59 l 1.49,11.93 c 7.27,2.8 21.07,5.22 30.21,5.22 33.56,0 38.22,-16.6 36.17,-33 -2.61,-21.07 -12.12,-32.64 -68.24,-73.84 l 61.35,0 -1.31,-11.56 -79.25,0 0.93,8.95 c 64.52,45.12 71.79,60.97 73.65,76.63 1.68,13.8 -4.29,21.26 -24.79,21.26"
         style="fill:#217ac8;fill-opacity:1;fill-rule:nonzero;stroke:none"
         id="path134"
         inkscape:connector-curvature="0" /><path
         d="m 3462.67,4512.74 70.29,128.29 -64.88,0 1.3,11.55 77.38,0 -1.12,-8.95 -68.62,-130.89 -14.35,0"
         style="fill:#217ac8;fill-opacity:1;fill-rule:nonzero;stroke:none"
         id="path136"
         inkscape:connector-curvature="0" /><path
         d="m 3556.64,4552.83 c 5.23,0 9.33,-4.1 9.33,-9.32 0,-5.23 -4.1,-9.33 -9.33,-9.33 -5.21,0 -9.32,4.1 -9.32,9.33 0,5.22 4.11,9.32 9.32,9.32"
         style="fill:#217ac8;fill-opacity:1;fill-rule:nonzero;stroke:none"
         id="path138"
         inkscape:connector-curvature="0" /><path
         d="m 1789.45,3039.33 19.55,0 c 31.41,0 42.62,22.11 48.07,65.37 5.12,42.94 -0.32,65.36 -31.73,65.36 l -19.54,0 -16.35,-130.73 z m -69.21,-54.8 29.48,240.32 82.03,0 c 84.28,0 98.05,-52.22 89.72,-120.15 -8.65,-68.25 -34.92,-120.17 -119.2,-120.17 l -82.03,0"
         style="fill:#868484;fill-opacity:1;fill-rule:nonzero;stroke:none"
         id="path140"
         inkscape:connector-curvature="0" /><path
         d="m 2059.24,3095.72 c -1.28,0.33 -7.37,1.28 -15.38,1.28 -13.78,0 -27.56,-4.48 -33.01,-8.01 l -12.81,-104.46 -62.82,0 19.56,160.22 41.66,0 4.48,-10.26 c 10.57,8.33 29.16,15.38 48.39,15.38 8,0 13.78,-0.95 16.98,-2.56 l -7.05,-51.59"
         style="fill:#868484;fill-opacity:1;fill-rule:nonzero;stroke:none"
         id="path142"
         inkscape:connector-curvature="0" /><path
         d="m 2184.19,2984.53 -4.81,10.26 c -16.34,-9.61 -35.88,-15.39 -55.11,-15.39 -46.79,0 -54.48,24.68 -50.63,56.08 l 13.46,109.27 62.8,0 -12.82,-103.5 c -0.96,-8.01 1.92,-12.82 10.58,-12.82 8.97,0 16.98,3.2 21.47,5.77 l 13.46,110.55 62.8,0 -19.55,-160.22 -41.65,0"
         style="fill:#868484;fill-opacity:1;fill-rule:nonzero;stroke:none"
         id="path144"
         inkscape:connector-curvature="0" /><path
         d="m 2324.51,3031.95 c 0.64,-0.63 7.69,-4.8 16.34,-4.8 16.66,0 22.11,10.57 25.31,37.49 3.53,27.24 0.65,37.81 -16.01,37.81 -8.66,0 -16.67,-4.17 -17.63,-4.8 l -8.01,-65.7 z m -7.37,112.8 5.45,-10.58 c 14.41,8.97 31.08,15.7 52.55,15.7 41.66,0 60.24,-23.71 52.55,-85.23 -7.37,-61.52 -31.72,-85.24 -73.38,-85.24 -14.42,0 -25.96,3.53 -35.25,8.66 l -10.25,-83.64 -62.8,0 29.47,240.33 41.66,0"
         style="fill:#868484;fill-opacity:1;fill-rule:nonzero;stroke:none"
         id="path146"
         inkscape:connector-curvature="0" /><path
         d="m 2551.67,3097.32 c -0.96,0.65 -7.69,4.81 -16.34,4.81 -16.66,0 -22.11,-10.58 -25.63,-37.49 -3.21,-27.24 -0.32,-37.81 16.34,-37.81 8.65,0 16.34,4.17 17.62,4.8 l 8.01,65.69 z m 49.03,-112.79 -41.66,0 -5.45,10.58 c -14.73,-8.98 -31.07,-15.71 -52.55,-15.71 -41.66,0 -60.24,23.72 -52.87,85.24 7.7,61.52 32.04,85.23 73.71,85.23 21.46,0 36.21,-6.73 48.7,-16.01 l 8.01,10.89 41.65,0 -19.54,-160.22"
         style="fill:#868484;fill-opacity:1;fill-rule:nonzero;stroke:none"
         id="path148"
         inkscape:connector-curvature="0" /><path
         d="m 2706.42,2983.89 c 0,0 -11.54,-2.56 -23.71,-2.56 -30.12,0 -50.32,13.46 -46.15,45.82 l 24.36,197.7 62.8,0 -22.75,-182.97 c -0.64,-6.4 2.57,-9.6 11.54,-9.6 l -6.09,-48.39"
         style="fill:#868484;fill-opacity:1;fill-rule:nonzero;stroke:none"
         id="path150"
         inkscape:connector-curvature="0" /><path
         d="m 2462.52,2720.1 11.54,95.82 -57.68,0 -11.54,-95.82 -62.8,0 29.48,240.33 62.81,0 -11.22,-89.08 57.68,0 11.21,89.08 62.8,0 -29.47,-240.33 -62.81,0"
         style="fill:#868484;fill-opacity:1;fill-rule:nonzero;stroke:none"
         id="path152"
         inkscape:connector-curvature="0" /><path
         d="m 2631.37,2895.07 24.03,65.36 60.88,0 -43.26,-65.36 -41.65,0 z m 13.13,-80.75 c 11.22,0 18.26,4.16 19.55,14.41 1.28,10.25 -4.8,14.42 -16.02,14.42 -14.1,0 -26.28,-9.6 -28.2,-28.83 l 24.67,0 z m -28.84,-32.05 c -2.55,-15.38 5.78,-21.8 32.69,-21.8 20.51,0 41.97,4.5 57.68,9.62 l -4.49,-43.9 c -20.5,-8.01 -47.74,-11.21 -67.29,-11.21 -59.28,0 -79.46,27.23 -72.41,85.23 7.04,58 36.2,85.24 91.31,85.24 52.24,0 70.82,-17.94 66.65,-51.59 -4.16,-33.65 -27.23,-51.59 -79.46,-51.59 l -24.68,0"
         style="fill:#868484;fill-opacity:1;fill-rule:nonzero;stroke:none"
         id="path154"
         inkscape:connector-curvature="0" /><path
         d="m 2845.07,2719.46 c -8.33,-2.88 -23.07,-4.48 -34.92,-4.48 -45.82,0 -60.89,19.86 -56.4,57.04 l 7.69,60.56 -25.32,0 4.81,39.09 25.95,7.05 4.17,32.04 64.73,16.67 -5.77,-47.11 36.53,0 -5.77,-47.74 -36.53,0 -6.73,-53.52 c -1.28,-10.26 2.89,-15.06 14.1,-15.06 8.98,0 16.98,1.92 18.26,2.25 l -4.8,-46.79"
         style="fill:#868484;fill-opacity:1;fill-rule:nonzero;stroke:none"
         id="path156"
         inkscape:connector-curvature="0" /><path
         d="m 2954.32,2782.91 33.97,97.41 64.08,0 -73.38,-161.5 -65.37,0 -33.64,161.5 64.08,0 10.26,-97.41"
         style="fill:#868484;fill-opacity:1;fill-rule:nonzero;stroke:none"
         id="path158"
         inkscape:connector-curvature="0" /><path
         d="m 3119.33,2895.07 24.03,65.36 60.88,0 -43.25,-65.36 -41.66,0 z m 13.13,-80.75 c 11.22,0 18.27,4.16 19.55,14.41 1.28,10.25 -4.8,14.42 -16.02,14.42 -14.1,0 -26.27,-9.6 -28.2,-28.83 l 24.67,0 z m -28.84,-32.05 c -2.56,-15.38 5.77,-21.8 32.69,-21.8 20.51,0 41.98,4.5 57.67,9.62 l -4.48,-43.9 c -20.51,-8.01 -47.74,-11.21 -67.29,-11.21 -59.28,0 -79.47,27.23 -72.42,85.23 7.06,58 36.22,85.24 91.32,85.24 52.24,0 70.82,-17.94 66.65,-51.59 -4.16,-33.65 -27.23,-51.59 -79.46,-51.59 l -24.68,0"
         style="fill:#868484;fill-opacity:1;fill-rule:nonzero;stroke:none"
         id="path160"
         inkscape:connector-curvature="0" /><path
         d="m 3328.54,2832.9 c -0.95,0.65 -7.68,4.81 -16.33,4.81 -16.66,0 -22.11,-10.58 -25.64,-37.5 -3.2,-26.91 -0.32,-37.81 16.34,-37.81 8.65,0 16.35,4.17 17.63,4.8 l 8,65.7 z m 68.58,47.42 -18.26,-148.36 c -5.45,-44.54 -15.71,-97.09 -99.02,-97.09 -25,0 -48.38,3.52 -64.09,9.93 l 6.73,51.59 c 18.58,-8.01 34.29,-12.18 51.91,-12.18 25.32,0 36.85,7.38 39.1,25.96 l 1.6,13.14 c -10.58,-4.81 -22.76,-8.33 -37.17,-8.33 -41.66,0 -60.24,23.71 -52.87,85.23 7.68,61.53 32.04,85.24 73.7,85.24 21.46,0 36.21,-6.73 48.7,-16.02 l 8.02,10.89 41.65,0"
         style="fill:#868484;fill-opacity:1;fill-rule:nonzero;stroke:none"
         id="path162"
         inkscape:connector-curvature="0" /><path
         d="m 3495.15,2814.32 c 11.22,0 18.27,4.16 19.55,14.41 1.28,10.25 -4.81,14.42 -16.03,14.42 -14.09,0 -26.27,-9.6 -28.19,-28.83 l 24.67,0 z m -28.84,-32.05 c -2.56,-15.38 5.77,-21.8 32.68,-21.8 20.51,0 41.99,4.5 57.68,9.62 l -4.48,-43.9 c -20.51,-8.01 -47.75,-11.21 -67.3,-11.21 -59.27,0 -79.46,27.23 -72.41,85.23 7.05,58 36.21,85.24 91.32,85.24 52.24,0 70.82,-17.94 66.65,-51.59 -4.16,-33.65 -27.24,-51.59 -79.46,-51.59 l -24.68,0"
         style="fill:#868484;fill-opacity:1;fill-rule:nonzero;stroke:none"
         id="path164"
         inkscape:connector-curvature="0" /><path
         d="m 2004.87,2690 -16.51,0 -3.48,-28.25 16.52,0 c 10.21,0 13.46,6.96 14.33,14.12 0.87,7.17 -0.64,14.13 -10.86,14.13 z m -5,-59.54 -18.9,0 -4.12,-33.46 18.89,0 c 10.87,0 15.87,6.74 17.17,16.73 1.08,10.21 -2.39,16.73 -13.04,16.73 z m -49.75,94.52 62.36,0 c 43.23,0 51.49,-19.98 48.23,-46.94 -1.52,-12.6 -9.34,-23.45 -19.77,-29.76 10.87,-5.22 18.69,-16.95 16.3,-35.64 -3.48,-28.47 -18.26,-50.62 -63.88,-50.62 l -63.23,0 19.99,162.96"
         style="fill:#514e4f;fill-opacity:1;fill-rule:nonzero;stroke:none"
         id="path166"
         inkscape:connector-curvature="0" /><path
         d="m 2144.18,2562.02 -3.26,6.95 c -11.08,-6.51 -24.34,-10.43 -37.38,-10.43 -31.71,0 -36.93,16.73 -34.32,38.03 l 9.12,74.09 42.59,0 -8.69,-70.19 c -0.65,-5.43 1.3,-8.69 7.17,-8.69 6.09,0 11.52,2.18 14.55,3.92 l 9.14,74.96 42.58,0 -13.25,-108.64 -28.25,0"
         style="fill:#514e4f;fill-opacity:1;fill-rule:nonzero;stroke:none"
         id="path168"
         inkscape:connector-curvature="0" /><path
         d="m 2264.15,2638.5 c -0.65,0.44 -5.21,3.26 -11.08,3.26 -11.3,0 -14.99,-7.17 -17.39,-25.42 -2.17,-18.47 -0.21,-25.64 11.09,-25.64 5.86,0 11.07,2.82 11.94,3.26 l 5.44,44.54 z m 4.99,-76.48 -3.69,7.16 c -9.99,-6.08 -21.07,-10.64 -35.64,-10.64 -28.24,0 -40.85,16.08 -35.85,57.8 5.22,41.72 21.73,57.8 49.98,57.8 9.78,0 17.6,-2.4 23.9,-5.87 l 6.95,56.71 42.59,0 -19.99,-162.96 -28.25,0"
         style="fill:#514e4f;fill-opacity:1;fill-rule:nonzero;stroke:none"
         id="path170"
         inkscape:connector-curvature="0" /><path
         d="m 2389.11,2638.5 c -0.65,0.44 -5.21,3.26 -11.08,3.26 -11.3,0 -14.99,-7.17 -17.39,-25.42 -2.16,-18.47 -0.21,-25.64 11.09,-25.64 5.87,0 11.08,2.82 11.95,3.26 l 5.43,44.54 z m 33.24,-76.48 -28.24,0 -3.69,7.16 c -10,-6.08 -21.08,-10.64 -35.63,-10.64 -28.26,0 -40.85,16.08 -35.86,57.8 5.21,41.72 21.72,57.8 49.98,57.8 14.56,0 24.55,-4.56 33.02,-10.86 l 5.43,7.38 28.26,0 -13.27,-108.64"
         style="fill:#514e4f;fill-opacity:1;fill-rule:nonzero;stroke:none"
         id="path172"
         inkscape:connector-curvature="0" /><path
         d="m 2487.14,2594.17 c 0.43,-0.42 5.21,-3.26 11.07,-3.26 11.3,0 15,7.17 17.17,25.43 2.39,18.47 0.44,25.64 -10.86,25.64 -5.87,0 -11.3,-2.82 -11.95,-3.26 l -5.43,-44.55 z m -5,76.49 3.69,-7.17 c 9.78,6.09 21.07,10.65 35.63,10.65 28.26,0 40.85,-16.08 35.64,-57.8 -5,-41.72 -21.51,-57.8 -49.76,-57.8 -9.77,0 -17.59,2.39 -23.9,5.87 l -6.96,-56.72 -42.58,0 19.99,162.97 28.25,0"
         style="fill:#514e4f;fill-opacity:1;fill-rule:nonzero;stroke:none"
         id="path174"
         inkscape:connector-curvature="0" /><path
         d="m 2624.92,2625.89 c 7.61,0 12.38,2.84 13.25,9.79 0.87,6.95 -3.26,9.77 -10.86,9.77 -9.56,0 -17.82,-6.51 -19.12,-19.56 l 16.73,0 z m -19.56,-21.72 c -1.74,-10.42 3.92,-14.78 22.17,-14.78 13.91,0 28.47,3.05 39.11,6.52 l -3.05,-29.76 c -13.9,-5.43 -32.37,-7.61 -45.62,-7.61 -40.2,0 -53.89,18.47 -49.11,57.8 4.78,39.33 24.56,57.8 61.93,57.8 35.41,0 48.02,-12.17 45.2,-34.98 -2.84,-22.82 -18.48,-34.99 -53.89,-34.99 l -16.74,0"
         style="fill:#514e4f;fill-opacity:1;fill-rule:nonzero;stroke:none"
         id="path176"
         inkscape:connector-curvature="0" /><path
         d="m 2777.05,2635.89 c -10.87,4.56 -23.69,6.96 -35.63,6.96 -7.61,0 -12.4,-1.74 -13.04,-6.53 -0.44,-4.99 2.82,-6.3 7.82,-6.73 35.2,-2.82 43.67,-9.13 40.63,-33.02 -2.61,-21.52 -16.52,-38.03 -55.4,-38.03 -20.65,0 -31.95,3.69 -40.64,7.39 l 4.56,32.15 c 13.04,-5.64 26.73,-8.47 39.33,-8.47 7.82,0 12.61,1.74 13.26,6.52 0.64,5 -2.83,6.31 -7.82,6.74 -34.55,3.04 -43.68,9.56 -40.85,33.02 2.82,22.82 18.89,38.25 54.31,38.25 20.21,0 30.42,-2.83 38.03,-6.09 l -4.56,-32.16"
         style="fill:#514e4f;fill-opacity:1;fill-rule:nonzero;stroke:none"
         id="path178"
         inkscape:connector-curvature="0" /><path
         d="m 2865.51,2561.58 c -5.66,-1.96 -15.65,-3.04 -23.69,-3.04 -31.08,0 -41.28,13.47 -38.25,38.68 l 5.22,41.07 -17.16,0 3.25,26.5 17.6,4.79 2.83,21.72 43.89,11.3 -3.91,-31.94 24.77,0 -3.91,-32.37 -24.77,0 -4.56,-36.29 c -0.87,-6.96 1.95,-10.22 9.56,-10.22 6.08,0 11.51,1.31 12.38,1.53 l -3.25,-31.73"
         style="fill:#514e4f;fill-opacity:1;fill-rule:nonzero;stroke:none"
         id="path180"
         inkscape:connector-curvature="0" /><path
         d="m 1772.96,2421.89 c -27.54,24.73 -57.48,40.8 -109.78,59.86 -50.19,18.32 -80.58,29.42 -133.06,39.92 -125.04,25.06 -281.08,11.51 -409.09,20.63 -63.55,4.53 -233.78,10.25 -238.034,93.73 -3.742,73.61 94.555,113.69 152.424,132.07 -125.986,-7.3 -620.369,-130.62 -569.834,-249.75 46.57,-109.76 398.383,-89 485.691,-86.48 206.153,5.92 269.463,33.26 395.873,36.58 50.33,1.33 326.01,3.34 425.81,-46.56"
         style="fill:#868484;fill-opacity:1;fill-rule:nonzero;stroke:none"
         id="path182"
         inkscape:connector-curvature="0" /><path
         d="m 1250.68,2568.26 c -82.26,2.85 -194.46,8.47 -252.828,23.28 -98.75,25.06 -100.29,71.76 -53.227,149.71 60.135,99.61 105.705,221.94 159.685,272.78 0,0 106.45,156.36 259.47,16.63 0,0 169.66,-133.06 202.93,-502.32 0,0 -155.77,34.35 -316.03,39.92"
         style="fill:#514e4f;fill-opacity:1;fill-rule:nonzero;stroke:none"
         id="path184"
         inkscape:connector-curvature="0" /><path
         d="m 1222.99,3104.95 c 0,0 -65.33,-2.82 -16.33,135.24 l 42.92,7.11 c 0,0 -15.96,-109.58 34.57,-104.94 0,0 -38.74,-41.72 -61.16,-37.41"
         style="fill:#514e4f;fill-opacity:1;fill-rule:nonzero;stroke:none"
         id="path186"
         inkscape:connector-curvature="0" /><path
         d="m 1200.76,3245.36 -4.1,80.57 11.98,8.03 9.53,-81.22 33.11,0.73 30,89.48 19.76,4.11 -42.81,-104.51 -19.22,-22.58 -38.25,25.39"
         style="fill:#514e4f;fill-opacity:1;fill-rule:nonzero;stroke:none"
         id="path188"
         inkscape:connector-curvature="0" /><path
         d="m 1169.91,3323.68 c 0,0 88.99,34.39 160.3,-6.98 0,0 -75.67,95.19 -160.3,6.98"
         style="fill:#514e4f;fill-opacity:1;fill-rule:nonzero;stroke:none"
         id="path190"
         inkscape:connector-curvature="0" /><path
         d="m 1259.74,3293.95 c -9.81,3.71 -17.62,1.84 -21.34,-6.04 -14.6,-1.21 -19.1,-16.72 -13.5,-26.97 6.6,-3.62 13.62,-6.62 21.17,-9.08 -2.14,-14.11 18.48,-38.5 36.93,-34.39 -34.57,19.77 26.98,75.86 -38.17,75.18"
         style="fill:#514e4f;fill-opacity:1;fill-rule:nonzero;stroke:none"
         id="path192"
         inkscape:connector-curvature="0" /><path
         d="m 969.609,3161.43 -0.683,0.43 -1.469,0.87 -0.395,0.25 c -17.914,11.15 -35.207,18.95 -51.929,26.5 -13.153,5.94 -25.578,11.55 -37.61,18.44 -3.91,2.28 -7.312,4.37 -10.187,6.27 -19.477,13.18 -52.438,52.55 -68.277,71.46 l -40.231,47.95 -6.301,-62.12 c -1.199,-11.87 -3.097,-22.15 -5.589,-30.39 -4.79,-15.45 -11.352,-22.98 -17.196,-28.26 -0.562,-0.47 -1.133,-0.93 -1.699,-1.36 l -0.211,-0.15 -0.199,-0.16 c -23.879,-18.72 -40.848,-27.44 -60.5,-37.53 -6.625,-3.4 -13.488,-6.92 -20.801,-10.92 -2.465,-1.32 -6.551,-3.6 -11.891,-6.84 -17.711,-10.66 -52.273,-34.23 -84.64,-72.41 -50.93,-59.83 -76.75,-130.43 -76.75,-209.87 0,-57.37 15.172,-113.5 43.879,-162.31 20.804,-35.37 48.09,-66.38 81.261,-92.3 l 0.461,-0.37 c 7.993,-6.19 16.325,-12.11 24.832,-17.58 l 0.711,-0.45 0.965,-0.6 c 3.824,-2.45 7.75,-4.83 11.52,-7.02 l 1.281,-0.74 c 3.91,-2.26 8.008,-4.49 12.625,-6.89 1.008,-0.51 2.027,-1.04 2.887,-1.45 3.367,-1.74 6.765,-3.4 10.238,-5 l 1.047,-0.51 2.144,-0.99 c 3.993,-1.8 8.032,-3.54 12.235,-5.26 1.113,-0.45 2.242,-0.87 3.347,-1.32 l 0.946,-0.36 c 2.898,-1.13 5.812,-2.24 8.632,-3.26 1.676,-0.58 3.364,-1.21 5.094,-1.79 3.891,-1.35 7.809,-2.62 11.696,-3.79 1.468,-0.45 2.941,-0.88 4.414,-1.27 l 1.535,-0.45 c 2.394,-0.67 4.785,-1.33 7.062,-1.92 2.254,-0.58 4.516,-1.17 6.907,-1.73 2.437,-0.57 4.882,-1.12 7.632,-1.68 3.696,-0.79 7.407,-1.53 11.125,-2.19 1.813,-0.33 3.621,-0.65 5.418,-0.92 2.758,-0.47 5.547,-0.88 8.231,-1.25 0.953,-0.14 1.922,-0.23 2.886,-0.35 l 1.133,-0.16 c 5.446,-0.66 10.926,-1.21 16.309,-1.6 l 0.992,-0.08 2.481,-0.19 c 3.191,-0.18 6.39,-0.35 9.73,-0.47 l 1.09,-0.02 0.703,-0.02 2.352,-0.08 c 2.492,-0.08 4.992,-0.15 7.492,-0.15 87.094,0 168.504,31.21 229.236,87.89 63.54,59.29 98.54,142.11 98.54,233.18 0,121.11 -59.96,228 -164.511,293.29"
         style="fill:#ffffff;fill-opacity:1;fill-rule:nonzero;stroke:none"
         id="path194"
         inkscape:connector-curvature="0" /><path
         d="m 955.059,3139.46 c -35.497,22.1 -68.997,30.81 -102.497,52.92 -20.765,14.07 -49.57,47.56 -73.683,76.37 -4.695,-46.22 -18.762,-64.98 -34.836,-78.38 -34.164,-26.8 -55.602,-34.83 -85.078,-50.91 -24.785,-12.72 -159.438,-93.12 -159.438,-265.94 0,-172.84 145.371,-300.13 306.817,-300.13 161.445,0 301.446,117.25 301.446,294.75 0,177.53 -131.298,257.92 -152.731,271.32"
         style="fill:#514e4f;fill-opacity:1;fill-rule:nonzero;stroke:none"
         id="path196"
         inkscape:connector-curvature="0" /><path
         d="m 900.645,2723.53 c 10.722,0 22.105,-0.66 30.152,-6.02 8.043,-5.37 12.726,-17.44 15.402,-24.14 2.68,-6.7 0,-10.7 -5.359,-13.39 -4.688,-2.68 -5.352,-1.33 -10.043,7.38 -4.692,8.69 -8.707,17.4 -32.164,17.4 -23.438,0 -30.813,-8.03 -42.195,-17.4 -11.387,-9.38 -15.415,-12.74 -19.43,-7.38 -4.016,5.37 -2.672,10.72 4.691,17.44 7.367,6.7 19.43,17.4 30.813,22.09 11.39,4.68 17.422,4.02 28.133,4.02 l 0,0"
         style="fill:#ffffff;fill-opacity:1;fill-rule:nonzero;stroke:none"
         id="path198"
         inkscape:connector-curvature="0" /><path
         d="m 789.441,2647.16 c 13.403,-10.72 33.504,-19.43 76.371,-19.43 42.876,0 73.028,12.07 86.418,22.11 6.032,4.69 8.708,0.66 9.379,-2.01 0.672,-2.68 2.008,-6.7 -2.679,-11.39 -3.348,-3.34 -34.16,-24.78 -70.336,-28.12 -36.176,-3.36 -85.078,-5.38 -114.555,21.42 -4.684,4.69 -3.351,11.39 0,14.08 3.344,2.68 6.027,4.67 10.047,4.67 4.019,0 3.355,0 5.355,-1.33 l 0,0"
         style="fill:#ffffff;fill-opacity:1;fill-rule:nonzero;stroke:none"
         id="path200"
         inkscape:connector-curvature="0" /><path
         d="m 625.32,2698.08 c 50.91,0.67 60.289,9.38 105.176,29.47 242.5,108.51 287.384,207.66 296.094,230.44 8.71,22.78 21.44,59.62 8.03,100.49 -2.58,7.88 -4.46,14.22 -5.83,19.32 -32.22,36.03 -64.216,55.7 -73.884,61.73 -34.828,22.11 -69,30.82 -102.488,52.92 -20.773,13.4 -49.574,47.57 -73.688,76.37 -4.691,-46.22 -18.089,-65.65 -34.839,-78.37 -34.164,-26.8 -55.598,-34.84 -85.075,-50.92 -24.777,-13.39 -155.91,-93.65 -155.91,-266.48 0,-55.18 12.953,-103.17 38.383,-146.39 l 4.988,-1.8 c 14.067,-12.72 36.168,-27.44 79.043,-26.78"
         style="fill:#868484;fill-opacity:1;fill-rule:nonzero;stroke:none"
         id="path202"
         inkscape:connector-curvature="0" /><path
         d="m 1036.33,3061.11 c 43.99,-54.98 66.29,-119.88 66.29,-192.89 0,-42.36 -8.06,-82.37 -23.98,-118.93 -15.1,-34.69 -36.83,-65.41 -64.61,-91.35 -54.905,-51.23 -128.714,-79.45 -207.835,-79.45 -39.148,0 -77.55,7.48 -114.175,22.23 -35.961,14.49 -68.368,35.23 -96.321,61.66 -58.875,55.62 -91.297,130.64 -91.297,211.21 0,71.74 23.297,135.51 69.227,189.5 35.098,41.25 72.933,64.11 87.57,72.02 7.113,3.87 13.785,7.3 20.231,10.61 20.215,10.37 39.308,20.17 65.562,40.77 14,10.64 28.922,27.49 35.274,70.3 22.125,-26.32 47.808,-55.9 67.425,-68.56 17.418,-11.5 35.286,-19.55 52.559,-27.34 16.344,-7.36 33.242,-14.98 49.969,-25.6 0.027,-0.02 0.629,-0.39 0.629,-0.39 48.882,-30.52 74.922,-63.08 83.482,-73.79 z m -81.424,78.42 c -34.828,22.11 -69,30.82 -102.488,52.92 -20.773,13.4 -49.574,47.57 -73.688,76.37 -4.691,-46.22 -18.089,-65.65 -34.839,-78.37 -34.164,-26.8 -55.598,-34.84 -85.075,-50.92 -24.777,-13.39 -159.429,-93.12 -159.429,-265.94 0,-55.18 14.816,-105.72 40.242,-148.95 54.223,-92.18 156.672,-151.17 266.566,-151.17 161.442,0 301.455,117.23 301.455,294.75 0,97.49 -39.6,165.68 -78.86,209.58 -32.22,36.03 -64.216,55.7 -73.884,61.73"
         style="fill:#605e5e;fill-opacity:1;fill-rule:nonzero;stroke:none"
         id="path204"
         inkscape:connector-curvature="0" /><path
         d="m 782.07,3255.42 c 9.383,-27.46 8.047,-41.52 8.047,-47.56 0,-6.02 -3.347,-22.1 -14.066,-30.15 -4.688,-3.33 -6.035,-6.02 -6.035,-6.69 0,-2.68 6.035,-4.69 6.035,-10.72 0,-7.37 -3.352,-22.11 -38.856,-57.6 -35.5,-35.51 -86.414,-67 -125.941,-86.43 -39.524,-19.42 -58.285,-18.09 -63.637,-8.7 -5.359,9.37 2,30.14 26.793,57.61 24.785,27.47 103.168,66.98 103.168,66.98 l 97.805,68.33 5.355,26.13"
         style="fill:#d8d7d8;fill-opacity:1;fill-rule:nonzero;stroke:none"
         id="path206"
         inkscape:connector-curvature="0" /><path
         d="m 782.07,3256.09 c -6.019,-44.21 -19.418,-57.6 -37.504,-71.68 -30.148,-22.77 -59.625,-36.84 -66.324,-40.19 -17.418,-8.7 -80.383,-43.54 -113.215,-93.78 -10.043,-15.4 0,-21.45 2.016,-22.78 2.012,-1.34 24.789,-4.02 73.684,25.46 48.914,29.48 70.335,46.89 97.808,75.69 14.731,15.41 16.746,24.12 16.746,28.13 0,4.7 -3.347,6.71 -8.715,8.05 -2.675,0.66 -3.339,2 0,4.01 3.356,2.02 17.422,8.71 20.774,11.39 3.348,2.69 19.43,13.41 20.101,30.82 0.664,17.41 -0.671,29.48 -5.371,44.88 l 0,0"
         style="fill:#ffffff;fill-opacity:1;fill-rule:nonzero;stroke:none"
         id="path208"
         inkscape:connector-curvature="0" /><path
         d="m 631.352,2769.08 c 0.668,52.26 49.566,101.15 111.203,101.83 78.379,0.66 132.64,-77.71 172.168,-77.03 33.484,0.67 97.797,66.31 129.277,66.31 33.5,0 42.88,-34.84 42.88,-55.61 0,-20.76 -6.7,-58.28 -22.77,-81.71 -16.08,-23.46 -26.14,-32.17 -44.89,-30.82 -24.118,2.01 -72.345,77.03 -103.165,78.37 -38.852,1.35 -123.262,-81.05 -189.575,-81.05 -40.191,0 -52.25,6.04 -65.656,14.75 -20.097,14.06 -30.14,35.48 -29.472,64.96 l 0,0"
         style="fill:#ffffff;fill-opacity:1;fill-rule:nonzero;stroke:none"
         id="path210"
         inkscape:connector-curvature="0" /><path
         d="m 1266.22,2884.61 -75.42,-479.36 106.45,13.3 24.83,440.93 -55.86,25.13"
         style="fill:#ffffff;fill-opacity:1;fill-rule:nonzero;stroke:none"
         id="path212"
         inkscape:connector-curvature="0" /><path
         d="m 1328.29,2831.22 c 0,0 43.44,-232.4 242.05,-213.57 108.61,21.99 164.46,31.43 214.11,188.44 l -9.31,-109.9 c 0,0 -6.2,-201 -235.84,-172.74 -108.62,25.12 -204.82,106.76 -207.92,210.41 l -3.09,97.36"
         style="fill:#ffffff;fill-opacity:1;fill-rule:nonzero;stroke:none"
         id="path214"
         inkscape:connector-curvature="0" /><path
         d="m 1247.59,2850.06 -21.72,-136.84 c 0,0 -41.72,-290.1 -447.585,-324.59 l -16.625,41.4 c 0,0 299.39,-51.75 485.93,420.03"
         style="fill:#ffffff;fill-opacity:1;fill-rule:nonzero;stroke:none"
         id="path216"
         inkscape:connector-curvature="0" /><path
         d="m 1257.25,2385.29 c 0,0 294,79.84 548.98,-26.6 l -548.98,26.6"
         style="fill:#868484;fill-opacity:1;fill-rule:nonzero;stroke:none"
         id="path218"
         inkscape:connector-curvature="0" /><path
         d="m 1951.11,2475.91 c -11.36,0 -22.37,-2.99 -30.2,-5.59 l 1.48,11.93 c 7.28,2.79 21.08,5.23 30.22,5.23 33.56,0 38.22,-16.61 36.17,-33.01 -2.61,-21.08 -12.12,-32.63 -68.24,-73.84 l 61.34,0 -1.3,-11.56 -79.25,0 0.93,8.95 c 64.52,45.12 71.79,60.97 73.66,76.63 1.68,13.8 -4.29,21.26 -24.81,21.26"
         style="fill:#868484;fill-opacity:1;fill-rule:nonzero;stroke:none"
         id="path220"
         inkscape:connector-curvature="0" /><path
         d="m 2082.37,2427.43 c 3.73,30.95 0,48.48 -24.05,48.48 -24.05,0 -32.26,-17.53 -35.99,-48.48 -3.91,-31.32 0,-48.67 24.06,-48.67 24.05,0 32.08,17.35 35.98,48.67 z m -73.27,0 c 4.66,38.6 16.41,60.05 50.53,60.05 34.12,0 40.64,-21.45 35.99,-60.05 -4.66,-38.6 -16.6,-60.23 -50.72,-60.23 -34.13,0 -40.47,21.63 -35.8,60.23"
         style="fill:#868484;fill-opacity:1;fill-rule:nonzero;stroke:none"
         id="path222"
         inkscape:connector-curvature="0" /><path
         d="m 2157.14,2487.48 -14.36,-118.41 -13.04,0 12.86,104.98 -25.36,-0.94 0.56,5.04 33.75,9.33 5.59,0"
         style="fill:#868484;fill-opacity:1;fill-rule:nonzero;stroke:none"
         id="path224"
         inkscape:connector-curvature="0" /><path
         d="m 2222.4,2487.48 -14.35,-118.41 -13.06,0 12.87,104.98 -25.36,-0.94 0.56,5.04 33.75,9.33 5.59,0"
         style="fill:#868484;fill-opacity:1;fill-rule:nonzero;stroke:none"
         id="path226"
         inkscape:connector-curvature="0" /><path
         d="m 2251.48,2385.84 c 5.22,0 9.32,-4.1 9.32,-9.31 0,-5.23 -4.1,-9.33 -9.32,-9.33 -5.22,0 -9.32,4.1 -9.32,9.33 0,5.21 4.1,9.31 9.32,9.31"
         style="fill:#868484;fill-opacity:1;fill-rule:nonzero;stroke:none"
         id="path228"
         inkscape:connector-curvature="0" /><path
         d="m 2384.79,2436.75 c 1.5,12.12 -5.02,15.85 -16.59,15.85 -12.12,0 -18.64,-2.05 -25.91,-5.96 l -9.52,-77.57 -13.04,0 11.36,93.23 7.28,0 1.86,-7.83 c 9.52,6.52 19.4,9.7 29.28,9.7 22.19,0 30.39,-10.07 28.34,-27.97 l -8.2,-67.13 -13.06,0 8.2,67.68"
         style="fill:#868484;fill-opacity:1;fill-rule:nonzero;stroke:none"
         id="path230"
         inkscape:connector-curvature="0" /><path
         d="m 2464.23,2452.6 c -24.61,0 -28.16,-15.85 -30.77,-36.92 -2.61,-21.07 -2.98,-36.92 21.63,-36.92 24.25,0 27.97,15.85 30.58,36.92 2.61,21.07 2.8,36.92 -21.44,36.92 z m -10.63,-85.4 c -31.88,0 -36.73,19.95 -33.19,48.48 3.55,28.53 13.24,48.49 45.13,48.49 32.07,0 36.73,-19.96 33.18,-48.49 -3.54,-28.53 -13.05,-48.48 -45.12,-48.48"
         style="fill:#868484;fill-opacity:1;fill-rule:nonzero;stroke:none"
         id="path232"
         inkscape:connector-curvature="0" /><path
         d="m 2534.71,2462.3 17.33,-76.46 36,76.46 14.35,0 -48.1,-95.1 -9.33,0 -24.61,95.1 14.36,0"
         style="fill:#868484;fill-opacity:1;fill-rule:nonzero;stroke:none"
         id="path234"
         inkscape:connector-curvature="0" /><path
         d="m 2650.3,2420.35 c 18.47,0 23.31,7.08 24.44,16.22 1.11,9.14 -1.87,16.03 -20.34,16.03 -21.62,0 -27.58,-15.48 -30.2,-32.25 l 26.1,0 z m -27.4,-10.64 c -1.12,-16.22 1.3,-30.95 22.37,-30.95 13.43,0 21.82,1.31 31.33,5.22 l -1.31,-11.18 c -11,-4.66 -22.37,-5.6 -31.51,-5.6 -31.51,0 -36.36,21.63 -33.19,48.48 3.36,26.85 13.61,48.49 45.12,48.49 26.29,0 33.01,-14.36 31.33,-27.6 -1.68,-13.24 -11.75,-26.86 -38.04,-26.86 l -26.1,0"
         style="fill:#868484;fill-opacity:1;fill-rule:nonzero;stroke:none"
         id="path236"
         inkscape:connector-curvature="0" /><path
         d="m 2823.9,2436.75 c 1.49,12.12 -5.03,15.85 -15.67,15.85 -11.55,0 -18.27,-2.23 -26.29,-6.15 0.38,-2.99 0.38,-6.15 0,-9.7 l -8.2,-67.68 -13.05,0 8.21,67.68 c 1.49,12.12 -5.04,15.85 -15.67,15.85 -10.82,0 -17.34,-1.86 -24.99,-5.59 l -9.5,-77.94 -13.06,0 11.38,93.23 7.27,0 1.86,-7.65 c 9.7,6.53 19.77,9.52 28.35,9.52 12.49,0 20.88,-3.55 24.8,-10.64 10.62,6.72 20.87,10.64 30.2,10.64 19.95,0 29.65,-9.33 27.41,-27.97 l -8.2,-67.13 -13.06,0 8.21,67.68"
         style="fill:#868484;fill-opacity:1;fill-rule:nonzero;stroke:none"
         id="path238"
         inkscape:connector-curvature="0" /><path
         d="m 2878.34,2446.64 -7.65,-61.91 c 6.71,-3.91 13.24,-5.97 25.36,-5.97 22.38,0 27.41,18.46 29.64,36.92 2.25,18.47 1.87,36.92 -20.5,36.92 -12.12,0 -19.21,-2.05 -26.85,-5.96 z m 60.41,-30.96 c -3.17,-26.85 -14.17,-48.48 -44.19,-48.48 -10.07,0 -19.02,3.36 -27.78,9.51 l -3.73,-7.64 -7.28,0 17.16,139.84 13.05,0 -6.53,-52.39 c 8.77,5.22 18.46,7.65 27.04,7.65 30.02,0 35.62,-21.64 32.26,-48.49"
         style="fill:#868484;fill-opacity:1;fill-rule:nonzero;stroke:none"
         id="path240"
         inkscape:connector-curvature="0" /><path
         d="m 3002.7,2420.35 c 18.45,0 23.31,7.08 24.42,16.22 1.12,9.14 -1.87,16.03 -20.32,16.03 -21.63,0 -27.6,-15.48 -30.21,-32.25 l 26.11,0 z m -27.42,-10.64 c -1.11,-16.22 1.31,-30.95 22.39,-30.95 13.41,0 21.81,1.31 31.31,5.22 l -1.29,-11.18 c -11.01,-4.66 -22.39,-5.6 -31.52,-5.6 -31.51,0 -36.36,21.63 -33.19,48.48 3.36,26.85 13.61,48.49 45.13,48.49 26.28,0 32.99,-14.36 31.32,-27.6 -1.68,-13.24 -11.74,-26.86 -38.04,-26.86 l -26.11,0"
         style="fill:#868484;fill-opacity:1;fill-rule:nonzero;stroke:none"
         id="path242"
         inkscape:connector-curvature="0" /><path
         d="m 3119.41,2451.11 c -2.79,0.94 -6.33,1.49 -10.99,1.49 -12.69,0 -20.52,-2.05 -27.79,-5.96 l -9.51,-77.57 -13.05,0 11.37,93.23 7.28,0 1.86,-7.83 c 9.51,6.52 20.7,9.7 31.14,9.7 4.28,0 7.64,-0.38 11.19,-0.94 l -1.5,-12.12"
         style="fill:#868484;fill-opacity:1;fill-rule:nonzero;stroke:none"
         id="path244"
         inkscape:connector-curvature="0" /><path
         d="m 3208.16,2475.91 c -11.37,0 -22.37,-2.99 -30.2,-5.59 l 1.49,11.93 c 7.27,2.79 21.07,5.23 30.21,5.23 33.56,0 38.22,-16.61 36.17,-33.01 -2.61,-21.08 -12.12,-32.63 -68.24,-73.84 l 61.34,0 -1.3,-11.56 -79.25,0 0.93,8.95 c 64.52,45.12 71.79,60.97 73.66,76.63 1.67,13.8 -4.3,21.26 -24.81,21.26"
         style="fill:#868484;fill-opacity:1;fill-rule:nonzero;stroke:none"
         id="path246"
         inkscape:connector-curvature="0" /><path
         d="m 3305.68,2378.76 c 25.36,0 31.7,20.7 33.19,33.38 1.49,12.68 1.86,33.37 -24.98,33.37 -26.29,0 -34.12,-18.83 -35.8,-33.37 -1.87,-14.92 0.74,-33.38 27.59,-33.38 z m -26.29,60.04 c 5.59,8.39 17.15,18.28 35.81,18.28 38.22,0 38.96,-26.11 36.72,-44.94 -2.42,-18.83 -11.37,-44.94 -47.73,-44.94 -40.09,0 -42.14,26.48 -37.3,66.19 5.6,45.87 19.77,77.39 60.8,77.39 18.08,0 27.41,-3.73 31.88,-6.34 l -1.49,-12.31 c -6.53,3.55 -16.97,6.71 -31.89,6.71 -29.46,0 -42.32,-24.98 -46.8,-60.04"
         style="fill:#868484;fill-opacity:1;fill-rule:nonzero;stroke:none"
         id="path248"
         inkscape:connector-curvature="0" /><path
         d="m 3418.12,2419.78 -46.63,0 1.5,12.31 46.61,0 -1.48,-12.31"
         style="fill:#868484;fill-opacity:1;fill-rule:nonzero;stroke:none"
         id="path250"
         inkscape:connector-curvature="0" /><path
         d="m 3476.66,2475.91 c -11.38,0 -22.37,-2.99 -30.2,-5.59 l 1.49,11.93 c 7.26,2.79 21.06,5.23 30.2,5.23 33.57,0 38.23,-16.61 36.18,-33.01 -2.61,-21.08 -12.12,-32.63 -68.25,-73.84 l 61.34,0 -1.3,-11.56 -79.24,0 0.92,8.95 c 64.52,45.12 71.8,60.97 73.66,76.63 1.67,13.8 -4.29,21.26 -24.8,21.26"
         style="fill:#868484;fill-opacity:1;fill-rule:nonzero;stroke:none"
         id="path252"
         inkscape:connector-curvature="0" /><path
         d="m 3526.62,2345.76 70.29,128.29 -64.88,0 1.3,11.56 77.38,0 -1.11,-8.95 -68.62,-130.9 -14.36,0"
         style="fill:#868484;fill-opacity:1;fill-rule:nonzero;stroke:none"
         id="path254"
         inkscape:connector-curvature="0" /><path
         d="m 3620.6,2385.84 c 5.22,0 9.32,-4.1 9.32,-9.31 0,-5.23 -4.1,-9.33 -9.32,-9.33 -5.22,0 -9.32,4.1 -9.32,9.33 0,5.21 4.1,9.31 9.32,9.31"
         style="fill:#868484;fill-opacity:1;fill-rule:nonzero;stroke:none"
         id="path256"
         inkscape:connector-curvature="0" /><path
         d="m 0,0 4194.65,0 0,1487.01 L 0,1487.01 0,0 z"
         style="fill:#050301;fill-opacity:1;fill-rule:nonzero;stroke:none"
         id="path258"
         inkscape:connector-curvature="0" /><path
         d="m 1725.51,939.52 19.55,0 c 31.4,0 42.62,22.109 48.06,65.37 5.13,42.94 -0.32,65.36 -31.72,65.36 l -19.55,0 -16.34,-130.73 z m -69.22,-54.801 29.49,240.321 82.03,0 c 84.27,0 98.05,-52.22 89.72,-120.15 -8.65,-68.249 -34.93,-120.171 -119.2,-120.171 l -82.04,0"
         style="fill:#ffffff;fill-opacity:1;fill-rule:nonzero;stroke:none"
         id="path260"
         inkscape:connector-curvature="0" /><path
         d="m 1995.29,995.91 c -1.28,0.328 -7.37,1.281 -15.38,1.281 -13.78,0 -27.56,-4.48 -33.01,-8.011 l -12.81,-104.461 -62.81,0 19.55,160.221 41.66,0 4.48,-10.26 c 10.58,8.33 29.16,15.38 48.39,15.38 8.01,0 13.78,-0.95 16.98,-2.56 l -7.05,-51.59"
         style="fill:#ffffff;fill-opacity:1;fill-rule:nonzero;stroke:none"
         id="path262"
         inkscape:connector-curvature="0" /><path
         d="m 2120.24,884.719 -4.8,10.261 c -16.35,-9.609 -35.89,-15.39 -55.12,-15.39 -46.78,0 -54.47,24.68 -50.62,56.082 l 13.45,109.268 62.81,0 -12.83,-103.499 c -0.95,-8.011 1.93,-12.82 10.58,-12.82 8.98,0 16.98,3.199 21.48,5.77 l 13.45,110.549 62.81,0 -19.56,-160.221 -41.65,0"
         style="fill:#ffffff;fill-opacity:1;fill-rule:nonzero;stroke:none"
         id="path264"
         inkscape:connector-curvature="0" /><path
         d="m 2260.57,932.141 c 0.63,-0.629 7.68,-4.801 16.33,-4.801 16.66,0 22.11,10.582 25.32,37.492 3.52,27.238 0.64,37.808 -16.02,37.808 -8.65,0 -16.67,-4.171 -17.63,-4.8 l -8,-65.699 z m -7.38,112.799 5.45,-10.58 c 14.42,8.98 31.09,15.7 52.55,15.7 41.66,0 60.25,-23.71 52.55,-85.228 -7.36,-61.523 -31.72,-85.242 -73.38,-85.242 -14.41,0 -25.96,3.531 -35.24,8.66 l -10.26,-83.641 -62.8,0 29.47,240.331 41.66,0"
         style="fill:#ffffff;fill-opacity:1;fill-rule:nonzero;stroke:none"
         id="path266"
         inkscape:connector-curvature="0" /><path
         d="m 2487.72,997.512 c -0.95,0.648 -7.68,4.808 -16.33,4.808 -16.66,0 -22.11,-10.582 -25.64,-37.488 -3.2,-27.242 -0.32,-37.812 16.34,-37.812 8.65,0 16.35,4.171 17.63,4.8 l 8,65.692 z m 49.04,-112.793 -41.66,0 -5.45,10.582 c -14.74,-8.981 -31.08,-15.711 -52.55,-15.711 -41.66,0 -60.24,23.719 -52.87,85.242 7.69,61.518 32.04,85.228 73.7,85.228 21.46,0 36.21,-6.72 48.7,-16.01 l 8.02,10.89 41.65,0 -19.54,-160.221"
         style="fill:#ffffff;fill-opacity:1;fill-rule:nonzero;stroke:none"
         id="path268"
         inkscape:connector-curvature="0" /><path
         d="m 2642.47,884.082 c 0,0 -11.53,-2.562 -23.71,-2.562 -30.12,0 -50.31,13.46 -46.14,45.82 l 24.35,197.7 62.81,0 -22.76,-182.962 c -0.63,-6.406 2.57,-9.609 11.54,-9.609 l -6.09,-48.387"
         style="fill:#ffffff;fill-opacity:1;fill-rule:nonzero;stroke:none"
         id="path270"
         inkscape:connector-curvature="0" /><path
         d="m 2398.56,620.301 11.55,95.808 -57.69,0 -11.53,-95.808 -62.8,0 29.48,240.32 62.8,0 -11.22,-89.082 57.69,0 11.21,89.082 62.8,0 -29.47,-240.32 -62.82,0"
         style="fill:#ffffff;fill-opacity:1;fill-rule:nonzero;stroke:none"
         id="path272"
         inkscape:connector-curvature="0" /><path
         d="m 2567.41,795.262 24.04,65.359 60.87,0 -43.26,-65.359 -41.65,0 z m 13.14,-80.75 c 11.22,0 18.26,4.16 19.55,14.41 1.28,10.25 -4.81,14.418 -16.03,14.418 -14.1,0 -26.28,-9.602 -28.19,-28.828 l 24.67,0 z m -28.84,-32.043 c -2.56,-15.379 5.77,-21.797 32.68,-21.797 20.51,0 41.98,4.488 57.68,9.617 l -4.48,-43.91 c -20.51,-8.008 -47.75,-11.207 -67.3,-11.207 -59.27,0 -79.46,27.238 -72.41,85.238 7.04,57.988 36.2,85.231 91.32,85.231 52.24,0 70.82,-17.942 66.65,-51.59 -4.16,-33.641 -27.24,-51.582 -79.46,-51.582 l -24.68,0"
         style="fill:#ffffff;fill-opacity:1;fill-rule:nonzero;stroke:none"
         id="path274"
         inkscape:connector-curvature="0" /><path
         d="m 2781.11,619.648 c -8.33,-2.878 -23.06,-4.476 -34.92,-4.476 -45.82,0 -60.89,19.859 -56.4,57.039 l 7.69,60.559 -25.31,0 4.8,39.089 25.96,7.051 4.17,32.039 64.73,16.672 -5.78,-47.109 36.54,0 -5.77,-47.742 -36.53,0 -6.74,-53.52 c -1.27,-10.25 2.9,-15.059 14.11,-15.059 8.97,0 16.98,1.93 18.27,2.25 l -4.82,-46.793"
         style="fill:#ffffff;fill-opacity:1;fill-rule:nonzero;stroke:none"
         id="path276"
         inkscape:connector-curvature="0" /><path
         d="m 2890.36,683.102 33.98,97.41 64.08,0 -73.38,-161.492 -65.37,0 -33.64,161.492 64.08,0 10.25,-97.41"
         style="fill:#ffffff;fill-opacity:1;fill-rule:nonzero;stroke:none"
         id="path278"
         inkscape:connector-curvature="0" /><path
         d="m 3055.37,795.262 24.03,65.359 60.88,0 -43.25,-65.359 -41.66,0 z m 13.14,-80.75 c 11.22,0 18.27,4.16 19.55,14.41 1.28,10.25 -4.81,14.418 -16.03,14.418 -14.09,0 -26.27,-9.602 -28.19,-28.828 l 24.67,0 z m -28.84,-32.043 c -2.56,-15.379 5.77,-21.797 32.68,-21.797 20.51,0 41.99,4.488 57.68,9.617 l -4.48,-43.91 c -20.51,-8.008 -47.75,-11.207 -67.3,-11.207 -59.28,0 -79.46,27.238 -72.41,85.238 7.05,57.988 36.21,85.231 91.32,85.231 52.23,0 70.82,-17.942 66.65,-51.59 -4.16,-33.641 -27.24,-51.582 -79.46,-51.582 l -24.68,0"
         style="fill:#ffffff;fill-opacity:1;fill-rule:nonzero;stroke:none"
         id="path280"
         inkscape:connector-curvature="0" /><path
         d="m 3264.59,733.09 c -0.96,0.648 -7.69,4.808 -16.34,4.808 -16.66,0 -22.11,-10.578 -25.63,-37.488 -3.21,-26.918 -0.33,-37.82 16.34,-37.82 8.65,0 16.34,4.172 17.62,4.808 l 8.01,65.692 z m 68.57,47.422 -18.26,-148.364 c -5.45,-44.539 -15.7,-97.089 -99.01,-97.089 -25,0 -48.39,3.531 -64.09,9.941 l 6.73,51.59 c 18.58,-8.008 34.28,-12.18 51.91,-12.18 25.31,0 36.85,7.371 39.09,25.961 l 1.6,13.129 c -10.57,-4.801 -22.75,-8.328 -37.17,-8.328 -41.66,0 -60.24,23.707 -52.87,85.238 7.69,61.52 32.04,85.231 73.7,85.231 21.47,0 36.21,-6.731 48.71,-16.02 l 8,10.891 41.66,0"
         style="fill:#ffffff;fill-opacity:1;fill-rule:nonzero;stroke:none"
         id="path282"
         inkscape:connector-curvature="0" /><path
         d="m 3431.19,714.512 c 11.22,0 18.27,4.16 19.55,14.41 1.28,10.25 -4.8,14.418 -16.02,14.418 -14.09,0 -26.27,-9.602 -28.2,-28.828 l 24.67,0 z m -28.84,-32.043 c -2.56,-15.379 5.78,-21.797 32.69,-21.797 20.51,0 41.98,4.488 57.67,9.617 l -4.48,-43.91 c -20.51,-8.008 -47.74,-11.207 -67.29,-11.207 -59.28,0 -79.47,27.238 -72.41,85.238 7.05,57.988 36.21,85.231 91.31,85.231 52.24,0 70.82,-17.942 66.65,-51.59 -4.16,-33.641 -27.23,-51.582 -79.46,-51.582 l -24.68,0"
         style="fill:#ffffff;fill-opacity:1;fill-rule:nonzero;stroke:none"
         id="path284"
         inkscape:connector-curvature="0" /><path
         d="m 1940.91,590.191 -16.52,0 -3.47,-28.242 16.51,0 c 10.22,0 13.47,6.949 14.34,14.121 0.87,7.168 -0.65,14.121 -10.86,14.121 z m -5,-59.531 -18.91,0 -4.12,-33.469 18.9,0 c 10.87,0 15.87,6.739 17.17,16.731 1.08,10.219 -2.4,16.738 -13.04,16.738 z m -49.76,94.512 62.37,0 c 43.23,0 51.49,-19.981 48.23,-46.934 -1.53,-12.597 -9.35,-23.457 -19.78,-29.769 10.87,-5.207 18.69,-16.938 16.3,-35.629 -3.48,-28.469 -18.25,-50.629 -63.88,-50.629 l -63.23,0 19.99,162.961"
         style="fill:#68cef6;fill-opacity:1;fill-rule:nonzero;stroke:none"
         id="path286"
         inkscape:connector-curvature="0" /><path
         d="m 2080.21,462.211 -3.26,6.961 c -11.07,-6.524 -24.33,-10.434 -37.37,-10.434 -31.72,0 -36.93,16.723 -34.33,38.024 l 9.13,74.09 42.58,0 -8.69,-70.18 c -0.64,-5.434 1.31,-8.692 7.18,-8.692 6.08,0 11.51,2.18 14.55,3.911 l 9.13,74.961 42.59,0 -13.25,-108.641 -28.26,0"
         style="fill:#68cef6;fill-opacity:1;fill-rule:nonzero;stroke:none"
         id="path288"
         inkscape:connector-curvature="0" /><path
         d="m 2200.19,538.699 c -0.66,0.442 -5.22,3.262 -11.09,3.262 -11.3,0 -14.99,-7.18 -17.38,-25.422 -2.18,-18.48 -0.22,-25.648 11.08,-25.648 5.86,0 11.08,2.828 11.95,3.269 l 5.44,44.539 z m 4.99,-76.488 -3.7,7.168 c -9.99,-6.078 -21.07,-10.641 -35.63,-10.641 -28.24,0 -40.85,16.082 -35.85,57.801 5.21,41.723 21.73,57.793 49.97,57.793 9.79,0 17.61,-2.391 23.91,-5.871 l 6.95,56.711 42.59,0 -19.99,-162.961 -28.25,0"
         style="fill:#68cef6;fill-opacity:1;fill-rule:nonzero;stroke:none"
         id="path290"
         inkscape:connector-curvature="0" /><path
         d="m 2325.15,538.699 c -0.66,0.442 -5.22,3.262 -11.09,3.262 -11.3,0 -14.99,-7.18 -17.38,-25.422 -2.17,-18.48 -0.22,-25.648 11.08,-25.648 5.87,0 11.09,2.828 11.96,3.269 l 5.43,44.539 z m 33.24,-76.488 -28.24,0 -3.69,7.168 c -10,-6.078 -21.09,-10.641 -35.64,-10.641 -28.25,0 -40.85,16.082 -35.86,57.801 5.22,41.723 21.73,57.793 49.98,57.793 14.56,0 24.55,-4.562 33.03,-10.863 l 5.43,7.383 28.25,0 -13.26,-108.641"
         style="fill:#68cef6;fill-opacity:1;fill-rule:nonzero;stroke:none"
         id="path292"
         inkscape:connector-curvature="0" /><path
         d="m 2423.17,494.371 c 0.43,-0.43 5.22,-3.262 11.08,-3.262 11.3,0 15,7.172 17.17,25.43 2.39,18.461 0.44,25.633 -10.86,25.633 -5.87,0 -11.3,-2.82 -11.96,-3.262 l -5.43,-44.539 z m -5,76.481 3.7,-7.161 c 9.77,6.079 21.07,10.641 35.63,10.641 28.25,0 40.85,-16.07 35.63,-57.793 -5,-41.719 -21.51,-57.801 -49.75,-57.801 -9.78,0 -17.6,2.391 -23.91,5.864 l -6.95,-56.711 -42.59,0 19.99,162.961 28.25,0"
         style="fill:#68cef6;fill-opacity:1;fill-rule:nonzero;stroke:none"
         id="path294"
         inkscape:connector-curvature="0" /><path
         d="m 2560.96,526.09 c 7.6,0 12.38,2.832 13.25,9.781 0.87,6.961 -3.26,9.777 -10.86,9.777 -9.56,0 -17.82,-6.507 -19.12,-19.558 l 16.73,0 z m -19.56,-21.719 c -1.74,-10.43 3.91,-14.781 22.16,-14.781 13.91,0 28.47,3.039 39.12,6.519 l -3.05,-29.769 c -13.91,-5.43 -32.37,-7.602 -45.63,-7.602 -40.19,0 -53.88,18.461 -49.11,57.801 4.79,39.32 24.56,57.793 61.94,57.793 35.41,0 48.01,-12.172 45.19,-34.98 -2.83,-22.813 -18.48,-34.981 -53.89,-34.981 l -16.73,0"
         style="fill:#68cef6;fill-opacity:1;fill-rule:nonzero;stroke:none"
         id="path296"
         inkscape:connector-curvature="0" /><path
         d="m 2713.09,536.09 c -10.87,4.558 -23.7,6.949 -35.64,6.949 -7.61,0 -12.39,-1.738 -13.04,-6.519 -0.44,-4.989 2.83,-6.301 7.83,-6.731 35.19,-2.82 43.67,-9.129 40.62,-33.027 -2.61,-21.512 -16.51,-38.024 -55.4,-38.024 -20.64,0 -31.94,3.692 -40.63,7.391 l 4.56,32.152 c 13.03,-5.652 26.73,-8.472 39.32,-8.472 7.83,0 12.61,1.742 13.26,6.511 0.65,5 -2.83,6.309 -7.82,6.739 -34.55,3.05 -43.68,9.562 -40.85,33.031 2.83,22.808 18.9,38.242 54.32,38.242 20.2,0 30.42,-2.82 38.03,-6.082 l -4.56,-32.16"
         style="fill:#68cef6;fill-opacity:1;fill-rule:nonzero;stroke:none"
         id="path298"
         inkscape:connector-curvature="0" /><path
         d="m 2801.54,461.77 c -5.65,-1.95 -15.64,-3.032 -23.69,-3.032 -31.06,0 -41.28,13.461 -38.24,38.684 l 5.21,41.058 -17.15,0 3.25,26.508 17.61,4.782 2.82,21.73 43.88,11.301 -3.9,-31.949 24.76,0 -3.9,-32.372 -24.78,0 -4.56,-36.289 c -0.87,-6.953 1.95,-10.211 9.56,-10.211 6.09,0 11.52,1.309 12.38,1.52 l -3.25,-31.73"
         style="fill:#68cef6;fill-opacity:1;fill-rule:nonzero;stroke:none"
         id="path300"
         inkscape:connector-curvature="0" /><path
         d="m 1709.01,322.09 c -27.55,24.719 -57.48,40.801 -109.78,59.879 -50.19,18.301 -80.59,29.39 -133.07,39.902 -125.03,25.078 -281.07,11.5 -409.09,20.629 -63.547,4.531 -233.773,10.25 -238.027,93.73 -3.738,73.61 94.555,113.711 152.434,132.09 -125.997,-7.328 -620.383,-130.648 -569.84,-249.769 46.566,-109.77 398.379,-89 485.687,-86.481 206.146,5.91 269.456,33.258 395.866,36.602 50.33,1.308 326.02,3.316 425.82,-46.582"
         style="fill:#68cef6;fill-opacity:1;fill-rule:nonzero;stroke:none"
         id="path302"
         inkscape:connector-curvature="0" /><path
         d="m 1186.72,468.449 c -82.25,2.852 -194.454,8.481 -252.825,23.281 -98.75,25.059 -100.282,71.762 -53.227,149.711 60.137,99.629 105.711,221.95 159.682,272.789 0,0 106.46,156.35 259.48,16.622 0,0 169.66,-133.063 202.92,-502.321 0,0 -155.76,34.36 -316.03,39.918"
         style="fill:#217ac8;fill-opacity:1;fill-rule:nonzero;stroke:none"
         id="path304"
         inkscape:connector-curvature="0" /><path
         d="m 1159.03,1005.15 c 0,0 -65.32,-2.81 -16.32,135.24 l 42.92,7.11 c 0,0 -15.96,-109.58 34.57,-104.95 0,0 -38.75,-41.71 -61.17,-37.4"
         style="fill:#217ac8;fill-opacity:1;fill-rule:nonzero;stroke:none"
         id="path306"
         inkscape:connector-curvature="0" /><path
         d="m 1136.81,1145.56 -4.1,80.57 11.98,8.04 9.52,-81.23 33.12,0.73 29.99,89.47 19.77,4.12 -42.81,-104.53 -19.23,-22.56 -38.24,25.39"
         style="fill:#217ac8;fill-opacity:1;fill-rule:nonzero;stroke:none"
         id="path308"
         inkscape:connector-curvature="0" /><path
         d="m 1105.96,1223.88 c 0,0 88.99,34.38 160.3,-6.99 0,0 -75.67,95.2 -160.3,6.99"
         style="fill:#217ac8;fill-opacity:1;fill-rule:nonzero;stroke:none"
         id="path310"
         inkscape:connector-curvature="0" /><path
         d="m 1195.79,1194.16 c -9.81,3.69 -17.62,1.83 -21.35,-6.06 -14.59,-1.21 -19.1,-16.72 -13.49,-26.97 6.59,-3.6 13.62,-6.62 21.16,-9.08 -2.14,-14.09 18.48,-38.48 36.94,-34.38 -34.58,19.77 26.98,75.86 -38.17,75.18"
         style="fill:#217ac8;fill-opacity:1;fill-rule:nonzero;stroke:none"
         id="path312"
         inkscape:connector-curvature="0" /><path
         d="m 905.652,1061.62 -0.679,0.43 -1.473,0.87 -0.395,0.26 c -17.91,11.15 -35.207,18.96 -51.929,26.5 -13.149,5.94 -25.574,11.55 -37.606,18.44 -3.906,2.27 -7.316,4.36 -10.191,6.27 -19.473,13.18 -52.438,52.54 -68.274,71.46 l -40.234,47.95 -6.293,-62.11 c -1.207,-11.89 -3.098,-22.16 -5.594,-30.41 -4.785,-15.43 -11.347,-22.96 -17.199,-28.26 -0.555,-0.45 -1.133,-0.92 -1.699,-1.35 l -0.207,-0.15 -0.203,-0.16 c -23.875,-18.73 -40.844,-27.44 -60.496,-37.54 -6.625,-3.4 -13.489,-6.91 -20.801,-10.9 -2.469,-1.34 -6.555,-3.61 -11.891,-6.85 -17.715,-10.66 -52.273,-34.24 -84.644,-72.398 -50.926,-59.852 -76.746,-130.453 -76.746,-209.891 0,-57.383 15.172,-113.492 43.871,-162.301 20.816,-35.371 48.093,-66.39 81.269,-92.308 l 0.457,-0.371 c 7.996,-6.211 16.328,-12.11 24.836,-17.571 l 0.707,-0.429 0.969,-0.629 c 3.82,-2.442 7.754,-4.82 11.52,-7.012 l 1.277,-0.738 c 3.918,-2.25 8.012,-4.5 12.629,-6.902 1.008,-0.508 2.023,-1.008 2.887,-1.438 3.367,-1.723 6.765,-3.402 10.242,-5 l 1.043,-0.492 2.144,-1 c 3.992,-1.809 8.031,-3.551 12.231,-5.27 1.113,-0.449 2.242,-0.879 3.355,-1.328 l 0.938,-0.351 c 2.906,-1.153 5.82,-2.25 8.632,-3.262 1.68,-0.59 3.364,-1.207 5.102,-1.797 3.883,-1.352 7.805,-2.621 11.691,-3.793 1.469,-0.449 2.946,-0.859 4.414,-1.269 l 1.532,-0.43 c 2.398,-0.68 4.793,-1.34 7.066,-1.93 2.25,-0.59 4.512,-1.148 6.902,-1.738 2.438,-0.57 4.891,-1.09 7.637,-1.68 3.696,-0.801 7.41,-1.523 11.125,-2.172 1.813,-0.328 3.617,-0.64 5.414,-0.949 2.766,-0.449 5.547,-0.859 8.235,-1.23 0.953,-0.121 1.918,-0.243 2.882,-0.36 l 1.141,-0.133 c 5.438,-0.687 10.922,-1.207 16.305,-1.617 l 0.988,-0.082 2.481,-0.199 c 3.195,-0.168 6.39,-0.352 9.734,-0.469 l 1.086,-0.019 0.703,-0.012 2.355,-0.078 c 2.489,-0.082 4.989,-0.16 7.489,-0.16 87.093,0 168.508,31.207 229.234,87.886 63.549,59.301 98.549,142.133 98.549,233.204 0,121.097 -59.96,227.988 -164.518,293.268"
         style="fill:#050301;fill-opacity:1;fill-rule:nonzero;stroke:none"
         id="path314"
         inkscape:connector-curvature="0" /><path
         d="m 891.105,1039.66 c -35.5,22.11 -69,30.8 -102.492,52.91 -20.769,14.09 -49.574,47.56 -73.691,76.39 -4.688,-46.23 -18.762,-64.98 -34.828,-78.38 -34.172,-26.82 -55.606,-34.84 -85.078,-50.92 -24.789,-12.73 -159.446,-93.121 -159.446,-265.949 0,-172.84 145.375,-300.102 306.817,-300.102 161.445,0 301.453,117.231 301.453,294.743 0,177.519 -131.297,257.908 -152.735,271.308"
         style="fill:#1d5d9e;fill-opacity:1;fill-rule:nonzero;stroke:none"
         id="path316"
         inkscape:connector-curvature="0" /><path
         d="m 836.695,623.73 c 10.715,0 22.098,-0.671 30.145,-6.019 8.043,-5.371 12.73,-17.422 15.406,-24.121 2.68,-6.699 0,-10.719 -5.355,-13.399 -4.696,-2.679 -5.36,-1.351 -10.051,7.36 -4.692,8.711 -8.703,17.41 -32.156,17.41 -23.446,0 -30.817,-8.031 -42.204,-17.41 -11.382,-9.371 -15.41,-12.711 -19.421,-7.36 -4.016,5.348 -2.676,10.719 4.683,17.399 7.371,6.699 19.43,17.422 30.817,22.129 11.386,4.672 17.418,4.011 28.136,4.011 l 0,0"
         style="fill:#ffffff;fill-opacity:1;fill-rule:nonzero;stroke:none"
         id="path318"
         inkscape:connector-curvature="0" /><path
         d="m 725.492,547.359 c 13.395,-10.718 33.496,-19.437 76.367,-19.437 42.871,0 73.024,12.078 86.418,22.109 6.035,4.688 8.703,0.668 9.379,-2.011 0.672,-2.649 2.008,-6.7 -2.679,-11.379 -3.352,-3.34 -34.161,-24.789 -70.336,-28.129 -36.184,-3.364 -85.079,-5.352 -114.551,21.429 -4.692,4.68 -3.356,11.379 0,14.059 3.34,2.672 6.023,4.711 10.043,4.711 4.015,0 3.351,0 5.359,-1.352 l 0,0"
         style="fill:#ffffff;fill-opacity:1;fill-rule:nonzero;stroke:none"
         id="path320"
         inkscape:connector-curvature="0" /><path
         d="m 561.367,598.262 c 50.906,0.679 60.293,9.386 105.176,29.488 242.5,108.512 287.387,207.66 296.094,230.449 8.707,22.77 21.433,59.61 8.031,100.473 -2.582,7.887 -4.469,14.238 -5.828,19.308 -32.223,36.04 -64.215,55.73 -73.883,61.74 -34.836,22.11 -69.004,30.84 -102.5,52.93 -20.766,13.4 -49.57,47.56 -73.684,76.37 -4.683,-46.23 -18.085,-65.65 -34.835,-78.38 -34.168,-26.8 -55.602,-34.84 -85.071,-50.92 -24.785,-13.38 -155.918,-93.63 -155.918,-266.458 0,-55.18 12.961,-103.172 38.387,-146.41 l 4.988,-1.782 c 14.067,-12.73 36.168,-27.48 79.043,-26.808"
         style="fill:#217ac8;fill-opacity:1;fill-rule:nonzero;stroke:none"
         id="path322"
         inkscape:connector-curvature="0" /><path
         d="m 972.379,961.301 c 43.991,-54.981 66.291,-119.879 66.291,-192.891 0,-42.34 -8.07,-82.359 -23.99,-118.941 -15.09,-34.668 -36.825,-65.387 -64.598,-91.328 -54.906,-51.231 -128.719,-79.45 -207.84,-79.45 -39.152,0 -77.554,7.481 -114.172,22.219 -35.965,14.5 -68.375,35.238 -96.324,61.66 -58.875,55.629 -91.297,130.649 -91.297,211.211 0,71.758 23.297,135.528 69.223,189.52 35.101,41.229 72.933,64.099 87.578,72.009 7.105,3.88 13.781,7.3 20.227,10.6 20.218,10.37 39.304,20.18 65.566,40.78 14,10.65 28.922,27.5 35.269,70.3 22.126,-26.31 47.805,-55.9 67.426,-68.56 17.422,-11.5 35.282,-19.55 52.563,-27.34 16.34,-7.36 33.242,-14.98 49.961,-25.61 0.031,0 0.633,-0.39 0.633,-0.39 48.882,-30.5 74.929,-63.078 83.484,-73.789 z m -81.422,78.419 c -34.836,22.11 -69.004,30.84 -102.5,52.93 -20.766,13.4 -49.57,47.56 -73.684,76.37 -4.683,-46.23 -18.085,-65.65 -34.835,-78.38 -34.168,-26.8 -55.602,-34.84 -85.071,-50.92 -24.785,-13.38 -159.437,-93.099 -159.437,-265.939 0,-55.172 14.82,-105.722 40.246,-148.941 54.222,-92.192 156.668,-151.168 266.566,-151.168 161.442,0 301.448,117.238 301.448,294.738 0,97.5 -39.59,165.692 -78.85,209.57 -32.223,36.04 -64.215,55.73 -73.883,61.74"
         style="fill:#1e4b80;fill-opacity:1;fill-rule:nonzero;stroke:none"
         id="path324"
         inkscape:connector-curvature="0" /><path
         d="m 718.113,1155.62 c 9.391,-27.46 8.055,-41.52 8.055,-47.56 0,-6.01 -3.356,-22.09 -14.066,-30.15 -4.696,-3.34 -6.043,-6.04 -6.043,-6.7 0,-2.68 6.043,-4.67 6.043,-10.71 0,-7.38 -3.356,-22.11 -38.86,-57.59 -35.5,-35.531 -86.418,-67.019 -125.941,-86.43 -39.528,-19.429 -58.281,-18.109 -63.641,-8.71 -5.359,9.371 2.004,30.14 26.793,57.601 24.789,27.481 103.168,66.989 103.168,66.989 l 97.805,68.32 5.355,26.13"
         style="fill:#68cef6;fill-opacity:1;fill-rule:nonzero;stroke:none"
         id="path326"
         inkscape:connector-curvature="0" /><path
         d="m 718.113,1156.3 c -6.011,-44.21 -19.414,-57.61 -37.504,-71.7 -30.144,-22.77 -59.625,-36.83 -66.316,-40.17 -17.422,-8.73 -80.387,-43.56 -113.219,-93.789 -10.043,-15.411 0,-21.45 2.012,-22.77 2.012,-1.351 24.789,-4.031 73.687,25.449 48.907,29.489 70.34,46.89 97.805,75.7 14.738,15.41 16.75,24.1 16.75,28.12 0,4.69 -3.348,6.7 -8.711,8.05 -2.679,0.66 -3.344,2.01 0,4.02 3.356,2 17.422,8.7 20.774,11.37 3.343,2.7 19.421,13.42 20.093,30.84 0.664,17.4 -0.672,29.47 -5.371,44.88 l 0,0"
         style="fill:#ffffff;fill-opacity:1;fill-rule:nonzero;stroke:none"
         id="path328"
         inkscape:connector-curvature="0" /><path
         d="m 567.398,669.27 c 0.668,52.269 49.567,101.171 111.2,101.839 78.379,0.661 132.64,-77.699 172.168,-77.027 33.488,0.66 97.804,66.309 129.285,66.309 33.489,0 42.879,-34.852 42.879,-55.61 0,-20.761 -6.7,-58.281 -22.78,-81.722 -16.08,-23.438 -26.127,-32.149 -44.88,-30.817 -24.118,2.008 -72.348,77.028 -103.165,78.379 -38.859,1.328 -123.265,-81.051 -189.582,-81.051 -40.187,0 -52.25,6.032 -65.652,14.719 -20.098,14.082 -30.141,35.512 -29.473,64.981 l 0,0"
         style="fill:#ffffff;fill-opacity:1;fill-rule:nonzero;stroke:none"
         id="path330"
         inkscape:connector-curvature="0" /><path
         d="m 1193.3,285.5 c 0,0 293.99,79.828 548.98,-26.621 L 1193.3,285.5"
         style="fill:#68cef6;fill-opacity:1;fill-rule:nonzero;stroke:none"
         id="path332"
         inkscape:connector-curvature="0" /><path
         d="m 1887.16,376.109 c -11.37,0 -22.37,-2.988 -30.21,-5.597 l 1.49,11.937 c 7.27,2.789 21.07,5.223 30.21,5.223 33.57,0 38.23,-16.602 36.17,-33.012 -2.6,-21.07 -12.11,-32.621 -68.24,-73.828 l 61.34,0 -1.3,-11.57 -79.25,0 0.94,8.957 c 64.51,45.121 71.78,60.961 73.65,76.633 1.68,13.796 -4.29,21.257 -24.8,21.257"
         style="fill:#ffffff;fill-opacity:1;fill-rule:nonzero;stroke:none"
         id="path334"
         inkscape:connector-curvature="0" /><path
         d="m 2018.42,327.621 c 3.73,30.957 0,48.488 -24.05,48.488 -24.06,0 -32.26,-17.531 -35.99,-48.488 -3.92,-31.32 0,-48.66 24.05,-48.66 24.05,0 32.08,17.34 35.99,48.66 z m -73.27,0 c 4.65,38.609 16.4,60.051 50.52,60.051 34.12,0 40.65,-21.442 35.99,-60.051 -4.66,-38.59 -16.59,-60.223 -50.71,-60.223 -34.13,0 -40.47,21.633 -35.8,60.223"
         style="fill:#ffffff;fill-opacity:1;fill-rule:nonzero;stroke:none"
         id="path336"
         inkscape:connector-curvature="0" /><path
         d="m 2093.18,387.672 -14.35,-118.41 -13.05,0 12.86,104.98 -25.36,-0.933 0.57,5.031 33.75,9.332 5.58,0"
         style="fill:#ffffff;fill-opacity:1;fill-rule:nonzero;stroke:none"
         id="path338"
         inkscape:connector-curvature="0" /><path
         d="m 2158.45,387.672 -14.36,-118.41 -13.05,0 12.87,104.98 -25.37,-0.933 0.56,5.031 33.75,9.332 5.6,0"
         style="fill:#ffffff;fill-opacity:1;fill-rule:nonzero;stroke:none"
         id="path340"
         inkscape:connector-curvature="0" /><path
         d="m 2187.53,286.039 c 5.21,0 9.32,-4.098 9.32,-9.32 0,-5.219 -4.11,-9.321 -9.32,-9.321 -5.23,0 -9.33,4.102 -9.33,9.321 0,5.222 4.1,9.32 9.33,9.32"
         style="fill:#ffffff;fill-opacity:1;fill-rule:nonzero;stroke:none"
         id="path342"
         inkscape:connector-curvature="0" /><path
         d="m 2320.84,336.949 c 1.49,12.121 -5.03,15.852 -16.59,15.852 -12.12,0 -18.64,-2.051 -25.92,-5.969 l -9.51,-77.57 -13.05,0 11.37,93.238 7.27,0 1.87,-7.84 c 9.51,6.531 19.39,9.699 29.28,9.699 22.18,0 30.39,-10.07 28.34,-27.968 l -8.21,-67.129 -13.05,0 8.2,67.687"
         style="fill:#ffffff;fill-opacity:1;fill-rule:nonzero;stroke:none"
         id="path344"
         inkscape:connector-curvature="0" /><path
         d="m 2400.27,352.801 c -24.61,0 -28.15,-15.852 -30.77,-36.93 -2.61,-21.062 -2.98,-36.91 21.63,-36.91 24.25,0 27.97,15.848 30.59,36.91 2.61,21.078 2.79,36.93 -21.45,36.93 z m -10.62,-85.403 c -31.89,0 -36.74,19.954 -33.19,48.473 3.54,28.539 13.24,48.488 45.12,48.488 32.07,0 36.73,-19.949 33.19,-48.488 -3.55,-28.519 -13.05,-48.473 -45.12,-48.473"
         style="fill:#ffffff;fill-opacity:1;fill-rule:nonzero;stroke:none"
         id="path346"
         inkscape:connector-curvature="0" /><path
         d="m 2470.75,362.5 17.34,-76.461 35.99,76.461 14.36,0 -48.11,-95.102 -9.32,0 -24.61,95.102 14.35,0"
         style="fill:#ffffff;fill-opacity:1;fill-rule:nonzero;stroke:none"
         id="path348"
         inkscape:connector-curvature="0" /><path
         d="m 2586.35,320.539 c 18.46,0 23.31,7.082 24.43,16.223 1.11,9.136 -1.86,16.039 -20.33,16.039 -21.62,0 -27.59,-15.481 -30.21,-32.262 l 26.11,0 z m -27.4,-10.629 c -1.13,-16.219 1.29,-30.949 22.37,-30.949 13.43,0 21.81,1.309 31.33,5.211 l -1.31,-11.18 c -11.01,-4.652 -22.38,-5.594 -31.52,-5.594 -31.51,0 -36.35,21.633 -33.19,48.473 3.36,26.859 13.61,48.488 45.13,48.488 26.29,0 33.01,-14.359 31.33,-27.597 -1.68,-13.242 -11.75,-26.852 -38.04,-26.852 l -26.1,0"
         style="fill:#ffffff;fill-opacity:1;fill-rule:nonzero;stroke:none"
         id="path350"
         inkscape:connector-curvature="0" /><path
         d="m 2759.94,336.949 c 1.5,12.121 -5.03,15.852 -15.65,15.852 -11.57,0 -18.28,-2.242 -26.3,-6.153 0.38,-2.988 0.38,-6.156 0,-9.699 l -8.2,-67.687 -13.05,0 8.2,67.687 c 1.5,12.121 -5.04,15.852 -15.66,15.852 -10.82,0 -17.35,-1.871 -24.99,-5.602 l -9.5,-77.937 -13.06,0 11.38,93.238 7.26,0 1.87,-7.648 c 9.69,6.519 19.76,9.507 28.35,9.507 12.49,0 20.87,-3.539 24.79,-10.629 10.63,6.711 20.89,10.629 30.21,10.629 19.95,0 29.64,-9.328 27.41,-27.968 l -8.21,-67.129 -13.05,0 8.2,67.687"
         style="fill:#ffffff;fill-opacity:1;fill-rule:nonzero;stroke:none"
         id="path352"
         inkscape:connector-curvature="0" /><path
         d="m 2814.38,346.832 -7.64,-61.902 c 6.71,-3.918 13.23,-5.969 25.36,-5.969 22.37,0 27.4,18.461 29.64,36.91 2.24,18.469 1.86,36.93 -20.51,36.93 -12.12,0 -19.21,-2.051 -26.85,-5.969 z m 60.41,-30.961 c -3.17,-26.84 -14.16,-48.473 -44.18,-48.473 -10.07,0 -19.03,3.364 -27.79,9.512 l -3.73,-7.648 -7.26,0 17.14,139.847 13.05,0 -6.52,-52.398 c 8.77,5.23 18.46,7.648 27.04,7.648 30.02,0 35.61,-21.629 32.25,-48.488"
         style="fill:#ffffff;fill-opacity:1;fill-rule:nonzero;stroke:none"
         id="path354"
         inkscape:connector-curvature="0" /><path
         d="m 2938.74,320.539 c 18.46,0 23.31,7.082 24.42,16.223 1.13,9.136 -1.86,16.039 -20.32,16.039 -21.63,0 -27.6,-15.481 -30.2,-32.262 l 26.1,0 z m -27.41,-10.629 c -1.12,-16.219 1.31,-30.949 22.38,-30.949 13.42,0 21.82,1.309 31.32,5.211 l -1.3,-11.18 c -11.01,-4.652 -22.38,-5.594 -31.51,-5.594 -31.52,0 -36.36,21.633 -33.2,48.473 3.36,26.859 13.62,48.488 45.13,48.488 26.29,0 33,-14.359 31.33,-27.597 -1.68,-13.242 -11.75,-26.852 -38.05,-26.852 l -26.1,0"
         style="fill:#ffffff;fill-opacity:1;fill-rule:nonzero;stroke:none"
         id="path356"
         inkscape:connector-curvature="0" /><path
         d="m 3055.46,351.301 c -2.79,0.941 -6.34,1.5 -11,1.5 -12.68,0 -20.51,-2.051 -27.78,-5.969 l -9.51,-77.57 -13.06,0 11.38,93.238 7.27,0 1.87,-7.84 c 9.5,6.531 20.69,9.699 31.13,9.699 4.29,0 7.65,-0.371 11.19,-0.937 l -1.49,-12.121"
         style="fill:#ffffff;fill-opacity:1;fill-rule:nonzero;stroke:none"
         id="path358"
         inkscape:connector-curvature="0" /><path
         d="m 3144.21,376.109 c -11.38,0 -22.37,-2.988 -30.21,-5.597 l 1.5,11.937 c 7.26,2.789 21.06,5.223 30.2,5.223 33.57,0 38.23,-16.602 36.18,-33.012 -2.61,-21.07 -12.12,-32.621 -68.25,-73.828 l 61.35,0 -1.31,-11.57 -79.25,0 0.93,8.957 c 64.52,45.121 71.8,60.961 73.65,76.633 1.68,13.796 -4.28,21.257 -24.79,21.257"
         style="fill:#ffffff;fill-opacity:1;fill-rule:nonzero;stroke:none"
         id="path360"
         inkscape:connector-curvature="0" /><path
         d="m 3241.73,278.961 c 25.36,0 31.7,20.687 33.18,33.379 1.5,12.672 1.87,33.371 -24.98,33.371 -26.29,0 -34.12,-18.832 -35.8,-33.371 -1.86,-14.918 0.74,-33.379 27.6,-33.379 z M 3215.44,339 c 5.59,8.391 17.15,18.27 35.8,18.27 38.22,0 38.97,-26.098 36.73,-44.93 -2.42,-18.84 -11.38,-44.942 -47.74,-44.942 -40.08,0 -42.13,26.473 -37.29,66.192 5.6,45.871 19.77,77.379 60.79,77.379 18.09,0 27.41,-3.727 31.89,-6.34 l -1.5,-12.301 c -6.52,3.543 -16.96,6.711 -31.88,6.711 -29.47,0 -42.33,-24.98 -46.8,-60.039"
         style="fill:#ffffff;fill-opacity:1;fill-rule:nonzero;stroke:none"
         id="path362"
         inkscape:connector-curvature="0" /><path
         d="m 3354.16,319.98 -46.62,0 1.49,12.309 46.61,0 -1.48,-12.309"
         style="fill:#ffffff;fill-opacity:1;fill-rule:nonzero;stroke:none"
         id="path364"
         inkscape:connector-curvature="0" /><path
         d="m 3412.71,376.109 c -11.38,0 -22.38,-2.988 -30.21,-5.597 l 1.49,11.937 c 7.27,2.789 21.07,5.223 30.21,5.223 33.56,0 38.22,-16.602 36.17,-33.012 -2.61,-21.07 -12.12,-32.621 -68.24,-73.828 l 61.35,0 -1.31,-11.57 -79.25,0 0.93,8.957 c 64.52,45.121 71.79,60.961 73.65,76.633 1.68,13.796 -4.29,21.257 -24.79,21.257"
         style="fill:#ffffff;fill-opacity:1;fill-rule:nonzero;stroke:none"
         id="path366"
         inkscape:connector-curvature="0" /><path
         d="m 3462.67,245.949 70.29,128.293 -64.88,0 1.3,11.567 77.38,0 -1.12,-8.957 -68.62,-130.903 -14.35,0"
         style="fill:#ffffff;fill-opacity:1;fill-rule:nonzero;stroke:none"
         id="path368"
         inkscape:connector-curvature="0" /><path
         d="m 3556.64,286.039 c 5.23,0 9.33,-4.098 9.33,-9.32 0,-5.219 -4.1,-9.321 -9.33,-9.321 -5.21,0 -9.32,4.102 -9.32,9.321 0,5.222 4.11,9.32 9.32,9.32"
         style="fill:#ffffff;fill-opacity:1;fill-rule:nonzero;stroke:none"
         id="path370"
         inkscape:connector-curvature="0" /><path
         d="m 1202.27,784.801 -75.43,-479.34 106.46,13.301 24.83,440.918 -55.86,25.121"
         style="fill:#050301;fill-opacity:1;fill-rule:nonzero;stroke:none"
         id="path372"
         inkscape:connector-curvature="0" /><path
         d="m 1264.33,731.422 c 0,0 43.44,-232.402 242.05,-213.551 108.61,21.988 164.47,31.399 214.12,188.41 l -9.31,-109.902 c 0,0 -6.2,-200.988 -235.84,-172.731 -108.62,25.133 -204.82,106.774 -207.92,210.434 l -3.1,97.34"
         style="fill:#050301;fill-opacity:1;fill-rule:nonzero;stroke:none"
         id="path374"
         inkscape:connector-curvature="0" /><path
         d="m 1183.64,750.27 -21.72,-136.84 c 0,0 -41.73,-290.11 -447.584,-324.629 l -16.633,41.429 c 0,0 299.399,-51.761 485.937,420.04"
         style="fill:#050301;fill-opacity:1;fill-rule:nonzero;stroke:none"
         id="path376"
         inkscape:connector-curvature="0" /></g></g></g><path
   id="path7"
   d="m -83.460668,-10.005074 c -3.037,-1.891 -5.901,-2.635 -8.766,-4.526 -1.776,-1.204 -4.24,-4.068 -6.302,-6.532 -0.401,3.953 -1.604002,5.558 -2.979002,6.704 -2.922,2.292 -4.755,2.979 -7.276,4.354 -2.12,1.0889999 -13.636,7.9639999 -13.636,22.746 0,14.782 12.433,25.668 26.241002,25.668 13.808,0 25.781,-10.026 25.781,-25.209 0,-15.1830001 -11.23,-22.0590001 -13.063,-23.205 z"
   inkscape:connector-curvature="0"
   style="fill:#00598e" />
<path
   id="path9"
   d="m -88.114668,25.568926 c 0.917,0 1.891,0.057 2.578,0.516 0.688,0.458 1.088,1.489 1.318,2.062 0.229,0.573 0,0.917 -0.458,1.146 -0.401,0.229 -0.458,0.114 -0.859,-0.63 -0.401,-0.745 -0.745,-1.49 -2.75,-1.49 -2.005,0 -2.636,0.688 -3.61,1.49 -0.974,0.802 -1.318,1.088 -1.662,0.63 -0.344,-0.458 -0.229,-0.917 0.401,-1.49 0.63,-0.573 1.661,-1.49 2.635,-1.891 0.975,-0.4 1.49,-0.343 2.407,-0.343 l 0,0 z"
   inkscape:connector-curvature="0"
   style="fill:#ffffff" />
<path
   id="path11"
   d="m -97.625668,32.100926 c 1.146,0.917 2.865,1.662 6.532,1.662 3.667,0 6.245,-1.031 7.391,-1.891 0.516,-0.401 0.745,-0.057 0.802,0.172 0.058,0.229 0.172,0.573 -0.229,0.974 -0.287,0.286 -2.922,2.12 -6.016,2.406 -3.094,0.287 -7.276,0.458 -9.797,-1.833 -0.401,-0.401 -0.286,-0.974 0,-1.203 0.287,-0.229 0.516,-0.401 0.859,-0.401 0.343,0 0.286,-0.001 0.458,0.114 l 0,0 z"
   inkscape:connector-curvature="0"
   style="fill:#ffffff" />
<path
   id="path13"
   d="m -111.66267,27.745926 c 4.354,-0.057 5.156,-0.802 8.995,-2.521 20.741002,-9.282 24.580002,-17.7620001 25.324002,-19.7090001 0.745,-1.948 1.833,-5.09999996 0.688,-8.594 -0.222,-0.675 -0.383,-1.217 -0.499,-1.652 -2.756,-3.082 -5.493,-4.764 -6.319,-5.2799999 -2.979,-1.891 -5.901,-2.636 -8.766,-4.526 -1.776,-1.146 -4.24,-4.068 -6.302,-6.532 -0.401,3.953 -1.547002,5.615 -2.979002,6.704 -2.922,2.292 -4.755,2.979 -7.276,4.354 -2.12,1.1459999 -13.636,7.9639999 -13.636,22.746 0,4.72 1.268,9.042 3.442,12.74 l 0.568,-0.02 c 1.202,1.087 3.093,2.348 6.76,2.29 z"
   inkscape:connector-curvature="0"
   style="fill:#0073ba" />
<path
   id="path15"
   d="m -83.473668,-10.011074 c -2.979,-1.891 -5.901,-2.636 -8.766,-4.526 -1.776,-1.146 -4.24,-4.068 -6.302,-6.532 -0.401,3.953 -1.547002,5.615 -2.979002,6.704 -2.922,2.292 -4.755,2.979 -7.276,4.354 -2.12,1.1459999 -13.636,7.9639999 -13.636,22.746 0,4.72 1.268,9.042 3.442,12.74 4.637,7.884 13.399,12.929 22.799002,12.929 13.808,0 25.783,-10.027 25.783,-25.21 0,-8.3380001 -3.387,-14.17000006 -6.744,-17.9240001 -2.758,-3.082 -5.494,-4.764 -6.321,-5.2809999 z m 6.964,6.7069999 c 3.762,4.703 5.669,10.253 5.669,16.4970001 0,3.623 -0.69,7.046 -2.051,10.173 -1.291,2.967 -3.15,5.595 -5.526,7.812 -4.696,4.382 -11.009,6.796 -17.776,6.796 -3.348,0 -6.634002,-0.64 -9.765002,-1.901 -3.076,-1.239 -5.848,-3.013 -8.238,-5.273 -5.035,-4.759 -7.808,-11.174 -7.808,-18.065 0,-6.1370001 1.992,-11.5900001 5.921,-16.2080001 3.001,-3.528 6.238,-5.483 7.49,-6.16 0.608,-0.332 1.178,-0.6249999 1.73,-0.9069999 1.729,-0.888 3.362,-1.726 5.607,-3.487 1.198,-0.91 2.474002,-2.352 3.017002,-6.012 1.893,2.251 4.089,4.781 5.767,5.863 1.49,0.983 3.018,1.672 4.495,2.338 1.398,0.63 2.843,1.282 4.274,2.1899999 0.002,0.001 0.054,0.033 0.054,0.033 4.181,2.611 6.408,5.396 7.14,6.311 z"
   inkscape:connector-curvature="0"
   style="fill:#004975" />
<path
   id="path17"
   d="m -98.255668,-19.923074 c 0.802,2.349 0.688,3.552 0.688,4.068 0,0.516 -0.286,1.891 -1.203,2.578 -0.401,0.287 -0.516,0.516 -0.516,0.573 0,0.229 0.516,0.401 0.516,0.917 0,0.63 -0.286,1.8909999 -3.323002,4.9269999 -3.037,3.036 -7.391,5.729 -10.771,7.39100004 -3.38,1.66199996 -4.985,1.54699996 -5.443,0.74499996 -0.458,-0.80199996 0.172,-2.579 2.292,-4.928 2.12,-2.349 8.823,-5.729 8.823,-5.729 l 8.365002,-5.8439999 0.458,-2.235"
   inkscape:connector-curvature="0"
   style="fill:#93c5e4" />
<path
   id="path19"
   d="m -98.255668,-19.980074 c -0.516,3.782 -1.661,4.928 -3.208002,6.131 -2.578,1.948 -5.099,3.151 -5.672,3.438 -1.49,0.7449999 -6.875,3.7239999 -9.683,8.0209999 -0.859,1.317 0,1.83300004 0.172,1.94800004 0.172,0.115 2.12,0.344 6.303,-2.17700004 4.182,-2.521 6.016,-4.011 8.365,-6.474 1.261,-1.3179999 1.433,-2.0619999 1.433,-2.4059999 0,-0.401 -0.287,-0.573 -0.745,-0.688 -0.229,-0.057 -0.286,-0.172 0,-0.344 0.287,-0.172 1.490002,-0.745 1.776002,-0.974 0.287,-0.229 1.662,-1.146 1.719,-2.636 0.057,-1.49 -0.059,-2.521 -0.46,-3.839 l 0,0 z"
   inkscape:connector-curvature="0"
   style="fill:#ffffff" />
<path
   id="path21"
   d="m -111.14667,21.672926 c 0.057,-4.469 4.24,-8.651 9.511,-8.708 6.704002,-0.057 11.345002,6.646 14.725002,6.589 2.865,-0.057 8.365,-5.672 11.058,-5.672 2.865,0 3.667,2.979 3.667,4.756 0,1.776 -0.573,4.984 -1.948,6.99 -1.375,2.005 -2.234,2.75 -3.838,2.635 -2.063,-0.172 -6.188,-6.589 -8.824,-6.703 -3.323,-0.115 -10.542,6.933 -16.214002,6.933 -3.438,0 -4.469,-0.516 -5.615,-1.261 -1.72,-1.205 -2.579,-3.038 -2.522,-5.559 l 0,0 z"
   inkscape:connector-curvature="0"
   style="fill:#ffffff" />
<path
   id="path23"
   d="m -76.655668,-3.0780741 c 1.146,3.49500004 0.057,6.646 -0.688,8.594 -0.745,1.948 -4.583,10.4270001 -25.324002,19.7090001 -3.839,1.719 -4.641,2.463 -8.995,2.521 -3.667,0.058 -5.558,-1.203 -6.761,-2.292 l -0.568,0.02 c 4.637,7.884 13.399,12.929 22.799002,12.929 13.808,0 25.783,-10.027 25.783,-25.21 0,-8.3380001 -3.387,-14.17000006 -6.744,-17.9240001 0.116,0.436 0.277,0.978 0.498,1.653 z"
   inkscape:connector-curvature="0"
   style="fill:none" />
<rect
   id="rect2436"
   x="240.977"
   y="4.321"
   fill="none"
   width="64.911"
   height="185.911" />
<rect
   id="rect2438"
   x="210.097"
   y="32.681"
   fill="none"
   width="67.432"
   height="127.302" />
<rect
   id="rect2440"
   x="232.154"
   y="25.749"
   fill="none"
   width="42.224"
   height="153.14" />
<rect
   id="rect2442"
   x="201.904"
   y="-21.517"
   fill="none"
   width="68.062"
   height="184.651" />
<rect
   id="rect2444"
   x="259.883"
   y="40.243"
   fill="none"
   width="34.661"
   height="144.317" />


<rect
   style="fill:#fffa84;fill-opacity:1"
   id="rect5635"
   width="194.36063"
   height="103.50565"
   x="136.85747"
   y="9.2396622" /><text
   xml:space="preserve"
   style="font-size:16.74729538px;font-style:normal;font-weight:normal;line-height:125%;letter-spacing:0px;word-spacing:0px;fill:#15538e;fill-opacity:1;stroke:none;font-family:Sans"
   x="33.701443"
   y="-311.35257"
   id="text3069"
   sodipodi:linespacing="125%"
   transform="matrix(-0.01110547,0.99993833,-0.99993833,-0.01110547,0,0)"><tspan
     sodipodi:role="line"
     id="tspan3071"
     x="33.701443"
     y="-311.35257"
     style="font-size:16.74729538px;font-style:normal;font-variant:normal;font-weight:bold;font-stretch:condensed;text-align:start;line-height:125%;writing-mode:lr-tb;text-anchor:start;fill:#15538e;fill-opacity:1;font-family:PT Sans Narrow;-inkscape-font-specification:PT Sans Narrow Bold Condensed">Drupal Htvge 2011</tspan></text>
<rect
   y="5.2144437"
   x="113.28118"
   height="56.928108"
   width="185.16013"
   id="rect5637"
   style="fill:#fffa84;fill-opacity:1" /><rect
   style="fill:#fffa84;fill-opacity:1"
   id="rect5639"
   width="344.44382"
   height="125.93188"
   x="5.1752734"
   y="192.67468" /></svg>